<?xml version="1.0" standalone="no"?>
<!DOCTYPE svg PUBLIC "-//W3C//DTD SVG 20010904//EN"
 "http://www.w3.org/TR/2001/REC-SVG-20010904/DTD/svg10.dtd">
<svg version="1.0" xmlns="http://www.w3.org/2000/svg"
 width="612.000000pt" height="612.000000pt" viewBox="0 0 612.000000 612.000000"
 preserveAspectRatio="xMidYMid meet">

<g transform="translate(0.000000,612.000000) scale(0.100000,-0.100000)"
fill="#000000" stroke="none">
<path d="M1830 4079 c-346 -45 -667 -287 -806 -608 -61 -142 -79 -235 -79
-416 1 -144 4 -170 29 -260 83 -294 270 -522 541 -656 336 -166 736 -135 1044
82 38 26 125 103 195 171 l126 123 -177 177 c-98 98 -182 178 -188 178 -5 0
-62 -52 -125 -116 -132 -132 -215 -182 -340 -205 -158 -28 -328 27 -445 144
-205 206 -207 525 -4 730 124 124 291 178 456 145 164 -32 134 -7 813 -683
693 -689 728 -719 940 -793 129 -45 210 -57 360 -56 110 1 153 6 235 28 308
80 572 305 692 590 99 235 109 504 26 746 -109 319 -380 567 -718 656 -86 23
-121 27 -245 27 -163 0 -236 -12 -380 -66 -141 -54 -245 -125 -401 -277 l-139
-135 182 -182 183 -183 110 111 c61 62 133 126 161 145 294 191 689 32 779
-314 76 -289 -130 -590 -431 -634 -68 -10 -94 -9 -161 4 -162 32 -134 9 -818
688 -533 529 -633 625 -714 678 -207 136 -454 193 -701 161z"/>
</g>
</svg>
