<svg width="85" height="122" viewBox="0 0 85 122" fill="none" xmlns="http://www.w3.org/2000/svg">
<path d="M49.4687 1.18848C49.2897 1.18848 49.1364 1.18848 48.9574 1.18848C48.8552 1.18848 48.7785 1.18848 48.6763 1.18848C43.9473 1.26516 38.5793 2.92655 32.879 6.47938C15.7269 17.1379 1.61665 41.8288 1.20766 61.8933C0.977599 72.6796 4.58186 80.2709 10.5122 83.8749L10.8701 84.1305L23.0887 91.2106C26.5652 94.7123 29.0958 99.4664 30.3228 105.55L30.9618 108.694C31.0129 109 31.1663 109.23 31.2941 109.46V109.511C31.2941 109.511 34.7194 118.253 48.574 120.017C49.0341 120.068 49.4943 119.761 49.571 119.301L64.7292 40.4485C65.8795 36.5379 66.6464 32.6016 66.9787 28.7932L68.3079 21.9431L77.817 15.8854C77.817 15.8854 66.7486 1.18848 49.4687 1.26516V1.18848Z" fill="#CBCACC"/>
<path d="M48.461 120.022C48.461 120.022 48.3076 120.022 48.2309 120.022C33.9898 118.218 30.3337 109.377 30.1803 108.995L30.1291 108.894C30.0013 108.665 29.8735 108.386 29.7968 108.03L29.1576 104.905C28.0326 99.3155 25.706 94.7168 22.2544 91.2107C21.0272 90.4993 10.3144 84.3254 10.161 84.2238L9.72634 83.9443C3.25778 80.0063 -0.219373 71.9523 0.0107334 61.2814C0.419812 41.1592 14.8398 16.1081 32.149 5.41179C37.5948 2.05809 42.8618 0.254203 47.8218 0.0509483L48.4354 0.000134582C48.4354 0.000134582 48.5888 0.000134582 48.6655 0.000134582H49.1513L49.2792 0.965594V0.000134582C66.844 -0.0506791 77.9402 14.3042 78.4005 14.9139L79.0141 15.727L68.9661 22.0787L67.7388 28.4812C67.432 32.1398 66.665 36.1032 65.4633 40.1683L50.3274 118.472C50.1485 119.361 49.3814 119.971 48.4866 119.971L48.461 120.022ZM32.0467 108.462C32.6347 109.732 36.3932 116.592 48.461 118.091L63.5713 39.7618C64.7474 35.7476 65.4889 31.9111 65.7957 28.2779L67.2019 20.9608L76.1505 15.295C73.5426 12.297 63.5458 1.93105 49.3559 1.93105H48.461C43.731 1.98187 38.4641 3.73494 33.1717 7.01242C16.3483 17.4038 2.36294 41.769 1.95386 61.3068C1.74932 71.2663 4.89411 78.7359 10.8002 82.3437L11.2093 82.6232L23.3538 89.6354L23.5583 89.7879C27.3167 93.5735 29.8479 98.5278 31.0496 104.524L31.6888 107.649C31.7143 107.801 31.791 107.903 31.8933 108.106L32.0467 108.386V108.513V108.462Z" fill="white"/>
<path d="M48.1019 62.9565L61.0563 23.6264C61.0563 23.6264 56.1505 9.85191 33.8187 5.94189C33.4099 6.1719 33.0011 6.35078 32.5922 6.60634C19.6888 14.6308 8.52295 31.012 3.59155 46.9842C3.59155 46.9842 13.301 59.3021 48.1019 62.9821V62.9565Z" fill="#CBCACC"/>
<path d="M48.8489 64.1703L48.0785 64.0931C13.257 60.4165 3.11357 48.1784 2.70269 47.6642L2.39453 47.2528L2.5486 46.7643C7.81292 29.6668 19.4201 13.5207 32.1058 5.62757C32.3626 5.47331 32.6194 5.31905 32.8762 5.1905C33.0303 5.11336 33.21 5.01052 33.3641 4.93339L33.6722 4.75342L34.0318 4.80484C56.7839 8.81567 61.9455 22.6479 62.151 23.2392L62.2537 23.5478L62.151 23.8563L48.8746 64.1703H48.8489ZM4.52594 46.79C6.47759 48.8211 17.4171 58.7454 47.4879 62.062L60.1736 23.5735C59.3005 21.6195 53.4969 10.3069 33.9804 6.75883C33.9034 6.81025 33.8263 6.83596 33.7236 6.88739C33.5182 6.99023 33.2871 7.11878 33.0816 7.24733C20.8838 14.8319 9.7389 30.3096 4.52594 46.79Z" fill="white"/>
<path d="M83.8028 34.2789C83.8028 12.7178 68.3391 4.26741 49.5836 15.9955C32.4612 26.6736 18.3754 51.41 17.9671 71.5116C17.712 84.1871 22.6879 92.5094 30.5219 95.0957C38.7896 97.8356 44.8883 104.57 47.0318 115.248L47.6698 118.398C47.976 119.986 49.3284 120.472 50.885 119.576C52.4416 118.68 53.794 116.631 54.1002 114.685L54.5595 111.843C56.703 98.7319 62.1383 84.6224 70.5336 72.5103C78.5717 60.9103 83.7773 46.8008 83.7773 34.2789H83.8028Z" fill="black"/>
<path d="M49.4333 121.185C49.0478 121.185 48.6625 121.108 48.3027 120.953C47.4803 120.594 46.915 119.823 46.7094 118.795L46.0668 115.633C44.0623 105.661 38.5371 98.9278 30.0823 96.1264C21.3705 93.2479 16.5134 84.2783 16.7704 71.5049C17.1816 51.1497 31.6756 25.8086 49.0479 14.9885C58.6077 9.0516 67.6536 7.89506 74.5665 11.7245C81.2996 15.4511 85.0002 23.4441 85.0002 34.1614C85.0002 46.5493 80.066 60.7362 71.4827 73.0983C63.4391 84.6638 57.7854 98.5423 55.5496 112.164L55.087 115.017C54.7272 117.253 53.1853 119.566 51.3607 120.619C50.6926 121.005 50.0245 121.211 49.4076 121.211L49.4333 121.185ZM65.7006 11.4418C60.9721 11.4418 55.6524 13.1895 50.1015 16.6334C33.1918 27.1451 19.1347 51.7923 18.7235 71.5563C18.4922 83.4044 22.861 91.7058 30.6991 94.3016C39.7193 97.2829 45.8612 104.736 47.9685 115.274L48.611 118.435C48.6624 118.718 48.7909 119.077 49.0993 119.232C49.4077 119.386 49.896 119.283 50.41 118.975C51.7206 118.229 52.9026 116.404 53.1853 114.734L53.6479 111.881C55.9351 97.9769 61.7172 83.8156 69.9151 72.0189C78.1643 60.1451 83.0985 46.0096 83.0985 34.1871C83.0985 24.1895 79.7577 16.8133 73.6671 13.4465C71.2771 12.1357 68.6046 11.4675 65.7006 11.4675V11.4418Z" fill="#585656"/>
<path d="M63.9962 60.9879C56.7422 73.4295 45.0184 80.1697 37.7644 76.0141C30.5105 71.8584 30.5105 58.4033 37.7644 45.9617C45.0184 33.5201 56.7422 26.7798 63.9962 30.9355C71.2501 35.0911 71.2501 48.5463 63.9962 60.9879Z" fill="#585656"/>
<path d="M42.3925 78.4302C40.4752 78.4302 38.6874 77.9946 37.081 77.0979C29.2823 72.64 29.1268 58.4209 36.7183 45.406C44.3098 32.391 56.8499 25.4224 64.6487 29.8546C68.5092 32.058 70.6338 36.6439 70.6338 42.7415C70.6338 48.8391 68.6387 55.3209 64.9855 61.5466C58.9486 71.8971 49.7767 78.4302 42.3406 78.4302H42.3925ZM59.2336 30.3927C52.5749 30.3927 44.1025 36.6183 38.4024 46.3539C31.3292 58.4466 31.1737 71.4872 38.0397 75.407C44.9057 79.3269 56.254 72.6657 63.3014 60.573C66.7733 54.6292 68.6905 48.301 68.6905 42.7159C68.6905 37.1307 66.9028 33.3646 63.6641 31.5199C62.3169 30.7513 60.8141 30.3927 59.2077 30.3927H59.2336Z" fill="#CBCACC"/>
<path d="M37.7385 46.1218C31.7122 56.6232 30.7163 67.7907 34.7509 73.6561C41.7987 74.0915 50.8637 67.6626 56.839 57.2636C62.8654 46.7621 63.8612 35.5947 59.8267 29.7293C52.7789 29.2938 43.7138 35.7228 37.7385 46.1218Z" fill="black"/>
<path d="M35.2507 73.6516C34.9909 73.6516 34.7312 73.6516 34.4715 73.6516H34.004L33.7443 73.2482C29.355 67.0708 30.5757 55.4977 36.7311 45.1349C42.9124 34.7216 52.3402 28.0652 60.1059 28.5443H60.5734L60.8331 28.9477C65.2224 35.1251 64.0016 46.6981 57.8463 57.061C51.8727 67.1213 42.8864 73.6768 35.2507 73.6768V73.6516ZM35.0688 71.7606C35.0688 71.7606 35.1727 71.7606 35.2507 71.7606C42.1073 71.7606 50.6001 65.4319 56.1581 56.0776C61.82 46.5469 63.1705 36.0832 59.5085 30.3849C59.4565 30.3849 59.4046 30.3849 59.3267 30.3849C52.4701 30.3849 43.9773 36.7135 38.4192 46.0678C32.7573 55.5986 31.4068 66.0623 35.0688 71.7606Z" fill="#CBCACC"/>
<path d="M62.5563 41.4238L61.645 43.1051L68.6914 46.868L69.6026 45.1867L62.5563 41.4238Z" fill="#CBCACC"/>
<path d="M42.9758 71.0962L42.0645 72.7775L49.1109 76.5404L50.0222 74.8591L42.9758 71.0962Z" fill="#CBCACC"/>
<path d="M47.163 116.457C34.9565 111.811 28.9739 104.96 28.7324 104.671L30.2616 103.385C30.2616 103.385 36.1905 110.131 47.8874 114.593L47.163 116.431V116.457Z" fill="#585656"/>
<path d="M18.3609 81.9952C9.57415 77.9481 1.29974 71.7358 1.19727 71.6585L2.35006 70.1118C2.35006 70.1118 10.5732 76.2726 19.155 80.2165L18.3609 81.9694V81.9952Z" fill="#585656"/>
</svg>
