<svg width="85" height="122" viewBox="0 0 85 122" fill="none" xmlns="http://www.w3.org/2000/svg">
<path d="M49.4686 1.18848C49.2896 1.18848 49.1363 1.18848 48.9573 1.18848C48.8551 1.18848 48.7784 1.18848 48.6762 1.18848C43.9472 1.26516 38.5792 2.92655 32.8789 6.47938C15.7268 17.1379 1.61653 41.8288 1.20754 61.8933C0.977479 72.6796 4.58174 80.2709 10.5121 83.8749L10.87 84.1305L23.0886 91.2106C26.5651 94.7123 29.0957 99.4664 30.3227 105.55L30.9617 108.694C31.0128 109 31.1662 109.23 31.294 109.46V109.511C31.294 109.511 34.7193 118.253 48.5739 120.017C49.034 120.068 49.4942 119.761 49.5709 119.301L64.7291 40.4485C65.8794 36.5379 66.6463 32.6016 66.9786 28.7932L68.3078 21.9431L77.8169 15.8854C77.8169 15.8854 66.7485 1.18848 49.4686 1.26516V1.18848Z" fill="#CBCACC"/>
<path d="M48.461 120.022C48.461 120.022 48.3076 120.022 48.2309 120.022C33.9898 118.218 30.3337 109.377 30.1803 108.995L30.1291 108.894C30.0013 108.665 29.8735 108.386 29.7968 108.03L29.1576 104.905C28.0326 99.3155 25.706 94.7168 22.2544 91.2107C21.0272 90.4993 10.3144 84.3254 10.161 84.2238L9.72634 83.9443C3.25778 80.0063 -0.219373 71.9523 0.0107334 61.2814C0.419812 41.1592 14.8398 16.1081 32.149 5.41179C37.5948 2.05809 42.8618 0.254203 47.8218 0.0509483L48.4354 0.000134583C48.4354 0.000134583 48.5888 0.000134583 48.6655 0.000134583H49.1513L49.2792 0.965594V0.000134583C66.844 -0.0506791 77.9402 14.3042 78.4005 14.9139L79.0141 15.727L68.9661 22.0787L67.7388 28.4812C67.432 32.1398 66.665 36.1032 65.4633 40.1683L50.3274 118.472C50.1485 119.361 49.3814 119.971 48.4866 119.971L48.461 120.022ZM32.0467 108.462C32.6347 109.732 36.3932 116.592 48.461 118.091L63.5713 39.7618C64.7474 35.7476 65.4889 31.9111 65.7957 28.2779L67.2019 20.9608L76.1505 15.295C73.5426 12.297 63.5458 1.93105 49.3559 1.93105H48.461C43.731 1.98187 38.4641 3.73494 33.1717 7.01242C16.3483 17.4038 2.36294 41.769 1.95386 61.3068C1.74932 71.2663 4.89411 78.7359 10.8002 82.3437L11.2093 82.6232L23.3538 89.6354L23.5583 89.7879C27.3167 93.5735 29.8479 98.5278 31.0496 104.524L31.6888 107.649C31.7143 107.801 31.791 107.903 31.8933 108.106L32.0467 108.386V108.513V108.462Z" fill="black"/>
<path d="M48.1019 62.9565L61.0563 23.6264C61.0563 23.6264 56.1505 9.85191 33.8187 5.94189C33.4099 6.1719 33.0011 6.35078 32.5922 6.60634C19.6888 14.6308 8.52295 31.012 3.59155 46.9842C3.59155 46.9842 13.301 59.3021 48.1019 62.9821V62.9565Z" fill="white"/>
<path d="M48.8488 64.1703L48.0784 64.0931C13.2569 60.4165 3.11345 48.1784 2.70257 47.6642L2.39441 47.2528L2.54848 46.7643C7.8128 29.6668 19.42 13.5207 32.1057 5.62757C32.3625 5.47331 32.6193 5.31905 32.8761 5.1905C33.0302 5.11336 33.2099 5.01052 33.364 4.93339L33.6721 4.75342L34.0317 4.80484C56.7838 8.81567 61.9454 22.6479 62.1509 23.2392L62.2536 23.5478L62.1509 23.8563L48.8745 64.1703H48.8488ZM4.52582 46.79C6.47747 48.8211 17.417 58.7454 47.4878 62.062L60.1735 23.5735C59.3004 21.6195 53.4968 10.3069 33.9803 6.75883C33.9033 6.81025 33.8262 6.83596 33.7235 6.88739C33.5181 6.99023 33.287 7.11878 33.0815 7.24733C20.8837 14.8319 9.73878 30.3096 4.52582 46.79Z" fill="black"/>
<path d="M83.8028 34.2789C83.8028 12.7178 68.3391 4.26743 49.5836 15.9955C32.4612 26.6736 18.3754 51.41 17.9671 71.5116C17.712 84.1871 22.6879 92.5094 30.5219 95.0957C38.7896 97.8356 44.8883 104.57 47.0318 115.248L47.6698 118.398C47.976 119.986 49.3284 120.472 50.885 119.576C52.4416 118.68 53.794 116.631 54.1002 114.685L54.5595 111.843C56.703 98.7319 62.1383 84.6224 70.5336 72.5103C78.5717 60.9103 83.7773 46.8008 83.7773 34.2789H83.8028Z" fill="black"/>
<path d="M49.4332 121.185C49.0477 121.185 48.6623 121.108 48.3025 120.953C47.4801 120.594 46.9148 119.823 46.7092 118.795L46.0667 115.633C44.0622 105.661 38.537 98.9278 30.0822 96.1264C21.3704 93.2479 16.5133 84.2783 16.7703 71.5049C17.1815 51.1497 31.6755 25.8086 49.0478 14.9885C58.6076 9.0516 67.6535 7.89506 74.5664 11.7245C81.2995 15.4511 85.0001 23.4441 85.0001 34.1614C85.0001 46.5493 80.0659 60.7362 71.4826 73.0983C63.439 84.6638 57.7853 98.5423 55.5495 112.164L55.0869 115.017C54.7271 117.253 53.1852 119.566 51.3606 120.619C50.6925 121.005 50.0243 121.211 49.4075 121.211L49.4332 121.185ZM65.7004 11.4418C60.9719 11.4418 55.6523 13.1895 50.1014 16.6334C33.1917 27.1451 19.1346 51.7923 18.7234 71.5563C18.4921 83.4044 22.8609 91.7058 30.699 94.3016C39.7192 97.2829 45.8611 104.736 47.9684 115.274L48.6109 118.435C48.6623 118.718 48.7908 119.077 49.0992 119.232C49.4076 119.386 49.8958 119.283 50.4098 118.975C51.7204 118.229 52.9025 116.404 53.1852 114.734L53.6478 111.881C55.935 97.9769 61.7171 83.8156 69.915 72.0189C78.1642 60.1451 83.0984 46.0096 83.0984 34.1871C83.0984 24.1895 79.7576 16.8133 73.667 13.4465C71.277 12.1357 68.6044 11.4675 65.7004 11.4675V11.4418Z" fill="black"/>
<path d="M63.9962 60.9881C56.7422 73.4297 45.0184 80.1699 37.7644 76.0143C30.5105 71.8586 30.5105 58.4035 37.7644 45.9619C45.0184 33.5203 56.7422 26.78 63.9962 30.9357C71.2501 35.0913 71.2501 48.5465 63.9962 60.9881Z" fill="black"/>
<path d="M42.3925 78.4302C40.4752 78.4302 38.6874 77.9946 37.081 77.0979C29.2823 72.64 29.1268 58.4209 36.7183 45.406C44.3098 32.391 56.8499 25.4224 64.6487 29.8546C68.5092 32.058 70.6338 36.6439 70.6338 42.7415C70.6338 48.8391 68.6387 55.3209 64.9855 61.5466C58.9486 71.8971 49.7767 78.4302 42.3406 78.4302H42.3925ZM59.2336 30.3927C52.5749 30.3927 44.1025 36.6183 38.4024 46.3539C31.3292 58.4466 31.1737 71.4872 38.0397 75.407C44.9057 79.3269 56.254 72.6657 63.3014 60.573C66.7733 54.6292 68.6905 48.301 68.6905 42.7159C68.6905 37.1307 66.9028 33.3646 63.6641 31.5199C62.3169 30.7513 60.8141 30.3927 59.2077 30.3927H59.2336Z" fill="#CBCACC"/>
<path d="M37.7385 46.1216C31.7122 56.623 30.7163 67.7905 34.7509 73.6559C41.7987 74.0913 50.8637 67.6624 56.839 57.2634C62.8654 46.7619 63.8612 35.5945 59.8267 29.7291C52.7789 29.2936 43.7138 35.7226 37.7385 46.1216Z" fill="black"/>
<path d="M35.2507 73.6516C34.9909 73.6516 34.7312 73.6516 34.4715 73.6516H34.004L33.7443 73.2482C29.355 67.0708 30.5757 55.4977 36.7311 45.1349C42.9124 34.7216 52.3402 28.0652 60.1059 28.5443H60.5734L60.8331 28.9477C65.2224 35.1251 64.0016 46.6981 57.8463 57.061C51.8727 67.1213 42.8864 73.6768 35.2507 73.6768V73.6516ZM35.0688 71.7606C35.0688 71.7606 35.1727 71.7606 35.2507 71.7606C42.1073 71.7606 50.6001 65.4319 56.1581 56.0776C61.82 46.5469 63.1705 36.0832 59.5085 30.3849C59.4565 30.3849 59.4046 30.3849 59.3267 30.3849C52.4701 30.3849 43.9773 36.7135 38.4192 46.0678C32.7573 55.5986 31.4068 66.0623 35.0688 71.7606Z" fill="#CBCACC"/>
<path d="M62.5562 41.4239L61.6449 43.1052L68.6913 46.8681L69.6025 45.1868L62.5562 41.4239Z" fill="#CBCACC"/>
<path d="M42.9756 71.0963L42.0643 72.7776L49.1107 76.5405L50.022 74.8592L42.9756 71.0963Z" fill="#CBCACC"/>
<path d="M47.163 116.457C34.9565 111.811 28.9739 104.96 28.7324 104.671L30.2616 103.385C30.2616 103.385 36.1905 110.131 47.8874 114.593L47.163 116.431V116.457Z" fill="black"/>
<path d="M18.3608 81.9952C9.57402 77.9481 1.29961 71.7358 1.19714 71.6585L2.34993 70.1118C2.34993 70.1118 10.5731 76.2726 19.1549 80.2165L18.3608 81.9694V81.9952Z" fill="black"/>
<path d="M61.1179 11.8835C48.6264 4.00162 40.7853 3.1146 40.7042 3.08925L40.9205 1.18848C41.245 1.21382 49.2753 2.12619 62.2535 10.2869L61.1179 11.8582V11.8835Z" fill="black"/>
</svg>
