<svg width="164" height="130" viewBox="0 0 164 130" fill="none" xmlns="http://www.w3.org/2000/svg">
<g clip-path="url(#clip0_337_118)">
<mask id="mask0_337_118" style="mask-type:luminance" maskUnits="userSpaceOnUse" x="1" y="36" width="163" height="94">
<path d="M3.56622 61.8517L46.4646 37.1593C49.4408 35.4561 54.6274 35.6678 58.0592 37.6309L160.899 96.7155C164.331 98.6786 164.709 101.662 161.733 103.365L118.834 128.057C115.858 129.761 110.672 129.549 107.24 127.586L4.39995 68.5011C0.968078 66.5381 0.58999 63.555 3.56622 61.8517Z" fill="white"/>
</mask>
<g mask="url(#mask0_337_118)">
<path d="M159.359 73.792L69.1382 125.496L69.3466 125.854L159.567 74.1503L159.359 73.792Z" fill="white"/>
<path d="M160.498 74.418L70.2778 126.122L70.4863 126.48L160.707 74.7764L160.498 74.418Z" fill="white"/>
<path d="M161.545 75.0562L71.3335 126.776L71.542 127.134L161.753 75.4145L161.545 75.0562Z" fill="white"/>
<path d="M162.734 75.6497L72.5225 127.369L72.731 127.727L162.942 76.008L162.734 75.6497Z" fill="white"/>
<path d="M163.7 76.3193L73.4883 128.039L73.6968 128.397L163.908 76.6776L163.7 76.3193Z" fill="white"/>
<path d="M164.859 76.926L74.6475 128.646L74.856 129.004L165.067 77.2843L164.859 76.926Z" fill="white"/>
<path d="M165.906 77.5854L75.686 129.289L75.8945 129.648L166.115 77.9438L165.906 77.5854Z" fill="white"/>
<path d="M167.08 78.1821L76.8691 129.902L77.0776 130.26L167.289 78.5404L167.08 78.1821Z" fill="white"/>
<path d="M168.133 78.8584L77.9038 130.547L78.1122 130.905L168.342 79.2168L168.133 78.8584Z" fill="white"/>
<path d="M169.299 79.4417L79.0874 131.161L79.2959 131.519L169.507 79.7999L169.299 79.4417Z" fill="white"/>
<path d="M170.356 80.1213L80.1357 131.825L80.3442 132.184L170.565 80.4797L170.356 80.1213Z" fill="white"/>
<path d="M171.53 80.6882L81.3188 132.408L81.5273 132.766L171.739 81.0465L171.53 80.6882Z" fill="white"/>
<path d="M172.501 81.385L82.2808 133.089L82.4892 133.447L172.71 81.7433L172.501 81.385Z" fill="white"/>
<path d="M173.66 81.9827L83.4482 133.702L83.6567 134.06L173.868 82.3411L173.66 81.9827Z" fill="white"/>
<path d="M174.697 82.637L84.4858 134.356L84.6943 134.715L174.906 82.9953L174.697 82.637Z" fill="white"/>
<path d="M175.882 83.2485L85.6616 134.952L85.8701 135.311L176.09 83.6069L175.882 83.2485Z" fill="white"/>
<path d="M176.929 83.8738L86.7178 135.593L86.9263 135.952L177.138 84.2321L176.929 83.8738Z" fill="white"/>
<path d="M143.904 64.9941L53.6929 116.714L53.9014 117.072L144.113 65.3524L143.904 64.9941Z" fill="white"/>
<path d="M145.075 65.6021L54.8638 117.322L55.0723 117.68L145.284 65.9604L145.075 65.6021Z" fill="white"/>
<path d="M146.059 66.2671L55.8477 117.987L56.0561 118.345L146.267 66.6254L146.059 66.2671Z" fill="white"/>
<path d="M147.208 66.8738L56.9966 118.593L57.2051 118.952L147.416 67.2321L147.208 66.8738Z" fill="white"/>
<path d="M148.256 67.5486L58.0356 119.252L58.2441 119.611L148.464 67.9069L148.256 67.5486Z" fill="white"/>
<path d="M149.44 68.1201L59.2285 119.84L59.437 120.198L149.648 68.4784L149.44 68.1201Z" fill="white"/>
<path d="M150.482 68.7732L60.2705 120.493L60.479 120.851L150.69 69.1315L150.482 68.7732Z" fill="white"/>
<path d="M151.658 69.3894L61.4468 121.109L61.6553 121.467L151.867 69.7477L151.658 69.3894Z" fill="white"/>
<path d="M152.71 70.0425L62.499 121.762L62.7075 122.12L152.919 70.4008L152.71 70.0425Z" fill="white"/>
<path d="M153.877 70.6641L63.6562 122.368L63.8647 122.726L154.085 71.0225L153.877 70.6641Z" fill="white"/>
<path d="M154.855 71.3057L64.6436 123.025L64.852 123.383L155.063 71.664L154.855 71.3057Z" fill="white"/>
<path d="M156.014 71.9441L65.7939 123.648L66.0024 124.006L156.223 72.3024L156.014 71.9441Z" fill="white"/>
<path d="M157.057 72.5752L66.8452 124.295L67.0537 124.653L157.265 72.9335L157.057 72.5752Z" fill="white"/>
<path d="M158.241 73.1636L68.021 124.867L68.2294 125.226L158.45 73.5219L158.241 73.1636Z" fill="white"/>
<path d="M159.288 73.8213L69.0771 125.541L69.2856 125.899L159.497 74.1796L159.288 73.8213Z" fill="white"/>
<path d="M126.305 54.9036L36.0938 106.623L36.3022 106.981L126.514 55.2619L126.305 54.9036Z" fill="white"/>
<path d="M127.459 55.5186L37.248 107.238L37.4565 107.596L127.668 55.8769L127.459 55.5186Z" fill="white"/>
<path d="M128.512 56.1912L38.2915 107.895L38.4999 108.253L128.72 56.5496L128.512 56.1912Z" fill="white"/>
<path d="M129.691 56.7747L39.4795 108.494L39.688 108.852L129.899 57.133L129.691 56.7747Z" fill="white"/>
<path d="M130.657 57.4546L40.4365 109.158L40.645 109.517L130.865 57.8129L130.657 57.4546Z" fill="white"/>
<path d="M131.815 58.051L41.604 109.771L41.8125 110.129L132.024 58.4093L131.815 58.051Z" fill="white"/>
<path d="M132.868 58.7041L42.6562 110.424L42.8647 110.782L133.076 59.0624L132.868 58.7041Z" fill="white"/>
<path d="M134.047 59.2976L43.8359 111.017L44.0444 111.375L134.256 59.6559L134.047 59.2976Z" fill="white"/>
<path d="M135.09 59.9507L44.8784 111.67L45.0869 112.028L135.298 60.309L135.09 59.9507Z" fill="white"/>
<path d="M136.271 60.5867L46.0503 112.291L46.2587 112.649L136.479 60.9451L136.271 60.5867Z" fill="white"/>
<path d="M137.318 61.22L47.1064 112.939L47.3149 113.298L137.526 61.5783L137.318 61.22Z" fill="white"/>
<path d="M138.497 61.8135L48.2856 113.533L48.4941 113.891L138.705 62.1719L138.497 61.8135Z" fill="white"/>
<path d="M139.463 62.4832L49.2515 114.203L49.46 114.561L139.671 62.8415L139.463 62.4832Z" fill="white"/>
<path d="M140.622 63.0898L50.4106 114.809L50.6191 115.168L140.83 63.4481L140.622 63.0898Z" fill="white"/>
<path d="M141.664 63.7524L51.4526 115.472L51.6611 115.83L141.872 64.1107L141.664 63.7524Z" fill="white"/>
<path d="M142.844 64.3459L52.6323 116.065L52.8408 116.424L143.052 64.7042L142.844 64.3459Z" fill="white"/>
<path d="M110.866 46.1013L20.6543 97.8208L20.8628 98.1791L111.074 46.4596L110.866 46.1013Z" fill="white"/>
<path d="M112.037 46.7324L21.8169 98.4363L22.0253 98.7946L112.246 47.0908L112.037 46.7324Z" fill="white"/>
<path d="M113.011 47.374L22.7993 99.0935L23.0078 99.4518L113.219 47.7323L113.011 47.374Z" fill="white"/>
<path d="M114.171 48.0139L23.9502 99.7178L24.1586 100.076L114.379 48.3722L114.171 48.0139Z" fill="white"/>
<path d="M115.217 48.6519L25.0059 100.371L25.2144 100.73L115.426 49.0102L115.217 48.6519Z" fill="white"/>
<path d="M116.394 49.2656L26.1733 100.969L26.3818 101.328L116.602 49.624L116.394 49.2656Z" fill="white"/>
<path d="M117.449 49.8984L27.2373 101.618L27.4458 101.976L117.657 50.2567L117.449 49.8984Z" fill="white"/>
<path d="M118.624 50.5049L28.4131 102.224L28.6216 102.583L118.833 50.8632L118.624 50.5049Z" fill="white"/>
<path d="M119.667 51.158L29.4556 102.877L29.6641 103.236L119.875 51.5163L119.667 51.158Z" fill="white"/>
<path d="M120.838 51.7659L30.627 103.485L30.8355 103.844L121.047 52.1243L120.838 51.7659Z" fill="white"/>
<path d="M121.822 52.4307L31.6104 104.15L31.8189 104.508L122.03 52.7891L121.822 52.4307Z" fill="white"/>
<path d="M122.971 53.0374L32.7598 104.757L32.9683 105.115L123.18 53.3957L122.971 53.0374Z" fill="white"/>
<path d="M124.019 53.7075L33.7983 105.411L34.0068 105.77L124.227 54.0659L124.019 53.7075Z" fill="white"/>
<path d="M125.194 54.2888L34.9829 106.008L35.1914 106.367L125.403 54.6471L125.194 54.2888Z" fill="white"/>
<path d="M126.255 54.937L36.0435 106.656L36.252 107.015L126.463 55.2953L126.255 54.937Z" fill="white"/>
<path d="M96.1486 38.1069L5.92822 89.8108L6.13665 90.1691L96.357 38.4653L96.1486 38.1069Z" fill="white"/>
<path d="M97.3329 38.6794L7.12158 90.3989L7.33007 90.7572L97.5414 39.0377L97.3329 38.6794Z" fill="white"/>
<path d="M98.2982 39.3586L8.08691 91.0781L8.29541 91.4364L98.5067 39.7169L98.2982 39.3586Z" fill="white"/>
<path d="M99.4626 39.9678L9.24219 91.6716L9.45062 92.03L99.671 40.3261L99.4626 39.9678Z" fill="white"/>
<path d="M100.505 40.6309L10.2847 92.3348L10.4931 92.6932L100.714 40.9893L100.505 40.6309Z" fill="white"/>
<path d="M101.684 41.2151L11.4639 92.9189L11.6723 93.2773L101.893 41.5734L101.684 41.2151Z" fill="white"/>
<path d="M102.731 41.8647L12.52 93.5842L12.7285 93.9425L102.94 42.223L102.731 41.8647Z" fill="white"/>
<path d="M103.912 42.4751L13.6919 94.179L13.9003 94.5373L104.121 42.8334L103.912 42.4751Z" fill="white"/>
<path d="M104.95 43.1245L14.7383 94.844L14.9468 95.2023L105.158 43.4828L104.95 43.1245Z" fill="white"/>
<path d="M106.134 43.7412L15.9141 95.4451L16.1225 95.8034L106.343 44.0995L106.134 43.7412Z" fill="white"/>
<path d="M107.104 44.3972L16.8931 96.1167L17.1016 96.475L107.313 44.7555L107.104 44.3972Z" fill="white"/>
<path d="M108.269 45.0308L18.0396 96.7191L18.2479 97.0775L108.477 45.3892L108.269 45.0308Z" fill="white"/>
<path d="M109.306 45.657L19.0942 97.3765L19.3027 97.7348L109.514 46.0153L109.306 45.657Z" fill="white"/>
<path d="M79.7084 28.6101L-10.5029 80.3296L-10.2944 80.6879L79.9169 28.9684L79.7084 28.6101Z" fill="white"/>
<path d="M80.7648 29.2766L-9.45557 80.9805L-9.24713 81.3388L80.9733 29.6349L80.7648 29.2766Z" fill="white"/>
<path d="M81.9403 29.8567L-8.271 81.5762L-8.0625 81.9345L82.1488 30.215L81.9403 29.8567Z" fill="white"/>
<path d="M82.9108 30.5452L-7.30957 82.2491L-7.10114 82.6075L83.1193 30.9036L82.9108 30.5452Z" fill="white"/>
<path d="M84.0648 31.1426L-6.14648 82.8621L-5.93799 83.2204L84.2733 31.5009L84.0648 31.1426Z" fill="white"/>
<path d="M85.1208 31.8101L-5.09961 83.514L-4.89117 83.8724L85.3292 32.1685L85.1208 31.8101Z" fill="white"/>
<path d="M86.2917 32.4084L-3.92871 84.1123L-3.72027 84.4707L86.5001 32.7668L86.2917 32.4084Z" fill="white"/>
<path d="M87.3387 33.0422L-2.87256 84.7617L-2.66407 85.12L87.5472 33.4005L87.3387 33.0422Z" fill="white"/>
<path d="M88.51 33.6687L-1.71045 85.3726L-1.50202 85.7309L88.7184 34.027L88.51 33.6687Z" fill="white"/>
<path d="M89.557 34.302L-0.654297 86.0215L-0.445797 86.3798L89.7655 34.6603L89.557 34.302Z" fill="white"/>
<path d="M90.7419 34.9158L0.521484 86.6196L0.729921 86.978L90.9503 35.2741L90.7419 34.9158Z" fill="white"/>
<path d="M91.7118 35.5747L1.50049 87.2942L1.70898 87.6525L91.9203 35.933L91.7118 35.5747Z" fill="white"/>
<path d="M92.8664 36.2021L2.646 87.906L2.85443 88.2644L93.0748 36.5606L92.8664 36.2021Z" fill="white"/>
<path d="M93.9218 36.8296L3.71045 88.5491L3.91894 88.9074L94.1303 37.1879L93.9218 36.8296Z" fill="white"/>
<path d="M95.0927 37.428L4.88135 89.1475L5.08985 89.5058L95.3012 37.7863L95.0927 37.428Z" fill="white"/>
<path d="M63.1154 19.2256L-27.105 70.9294L-26.8965 71.2878L63.3238 19.5839L63.1154 19.2256Z" fill="white"/>
<path d="M64.2946 19.8193L-25.9258 71.5232L-25.7173 71.8815L64.503 20.1777L64.2946 19.8193Z" fill="white"/>
<path d="M65.2702 20.4893L-24.9502 72.1932L-24.7418 72.5516L65.4786 20.8477L65.2702 20.4893Z" fill="white"/>
<path d="M66.4144 21.0808L-23.7969 72.8003L-23.5884 73.1586L66.6229 21.4391L66.4144 21.0808Z" fill="white"/>
<path d="M67.4667 21.7336L-22.7446 73.4531L-22.5361 73.8114L67.6752 22.0919L67.4667 21.7336Z" fill="white"/>
<path d="M68.6511 22.3528L-21.5693 74.0566L-21.3609 74.415L68.8595 22.7111L68.6511 22.3528Z" fill="white"/>
<path d="M69.6981 22.99L-20.5132 74.7095L-20.3047 75.0678L69.9066 23.3483L69.6981 22.99Z" fill="white"/>
<path d="M70.8693 23.6128L-19.3511 75.3167L-19.1426 75.675L71.0778 23.9711L70.8693 23.6128Z" fill="white"/>
<path d="M71.9216 24.2468L-18.2988 75.9507L-18.0904 76.309L72.13 24.6051L71.9216 24.2468Z" fill="white"/>
<path d="M73.0956 24.843L-17.1157 76.5625L-16.9072 76.9208L73.3041 25.2013L73.0956 24.843Z" fill="white"/>
<path d="M74.0614 25.5127L-16.1499 77.2322L-15.9414 77.5905L74.2699 25.871L74.0614 25.5127Z" fill="white"/>
<path d="M75.2258 26.1267L-14.9946 77.8306L-14.7862 78.1889L75.4342 26.485L75.2258 26.1267Z" fill="white"/>
<path d="M76.2626 26.7822L-13.9487 78.5017L-13.7402 78.86L76.4711 27.1405L76.2626 26.7822Z" fill="white"/>
<path d="M77.4572 27.3738L-12.7632 79.0776L-12.5548 79.436L77.6656 27.7321L77.4572 27.3738Z" fill="white"/>
<path d="M78.4992 28.0464L-11.7212 79.7502L-11.5128 80.1086L78.7077 28.4047L78.4992 28.0464Z" fill="white"/>
<path d="M192.989 93.5022L102.778 145.222L102.986 145.58L193.198 93.8605L192.989 93.5022Z" fill="white"/>
<path d="M194.144 94.1401L103.923 145.844L104.132 146.202L194.352 94.4985L194.144 94.1401Z" fill="white"/>
<path d="M195.196 94.7742L104.976 146.478L105.184 146.836L195.404 95.1326L195.196 94.7742Z" fill="white"/>
<path d="M196.358 95.3918L106.137 147.096L106.346 147.454L196.566 95.7502L196.358 95.3918Z" fill="white"/>
<path d="M197.336 96.0347L107.125 147.754L107.333 148.112L197.544 96.393L197.336 96.0347Z" fill="white"/>
<path d="M198.495 96.6819L108.275 148.386L108.483 148.744L198.704 97.0402L198.495 96.6819Z" fill="white"/>
<path d="M199.537 97.304L109.326 149.023L109.535 149.382L199.746 97.6623L199.537 97.304Z" fill="white"/>
<path d="M200.713 97.9009L110.502 149.62L110.71 149.979L200.922 98.2592L200.713 97.9009Z" fill="white"/>
<path d="M201.769 98.5503L111.558 150.27L111.766 150.628L201.977 98.9086L201.769 98.5503Z" fill="white"/>
<path d="M202.94 99.175L112.729 150.895L112.937 151.253L203.148 99.5333L202.94 99.175Z" fill="white"/>
<path d="M203.998 99.8381L113.768 151.526L113.976 151.885L204.206 100.196L203.998 99.8381Z" fill="white"/>
<path d="M205.163 100.417L114.952 152.136L115.16 152.495L205.371 100.775L205.163 100.417Z" fill="white"/>
<path d="M206.137 101.107L115.917 152.811L116.125 153.169L206.346 101.465L206.137 101.107Z" fill="white"/>
<path d="M207.296 101.698L117.085 153.417L117.293 153.776L207.505 102.056L207.296 101.698Z" fill="white"/>
<path d="M208.344 102.375L118.124 154.079L118.332 154.438L208.552 102.734L208.344 102.375Z" fill="white"/>
<path d="M209.519 102.949L119.308 154.669L119.517 155.027L209.728 103.308L209.519 102.949Z" fill="white"/>
<path d="M177.54 84.7092L87.3291 136.429L87.5376 136.787L177.749 85.0675L177.54 84.7092Z" fill="white"/>
<path d="M178.711 85.3076L88.5 137.027L88.7085 137.385L178.92 85.6659L178.711 85.3076Z" fill="white"/>
<path d="M179.687 85.9871L89.4756 137.707L89.6841 138.065L179.895 86.3454L179.687 85.9871Z" fill="white"/>
<path d="M180.849 86.5972L90.6382 138.317L90.8467 138.675L181.058 86.9555L180.849 86.5972Z" fill="white"/>
<path d="M181.892 87.2612L91.6719 138.965L91.8803 139.323L182.101 87.6196L181.892 87.2612Z" fill="white"/>
<path d="M183.073 87.8582L92.8613 139.578L93.0698 139.936L183.281 88.2165L183.073 87.8582Z" fill="white"/>
<path d="M184.115 88.5227L93.895 140.227L94.1034 140.585L184.324 88.881L184.115 88.5227Z" fill="white"/>
<path d="M185.291 89.1179L95.0796 140.837L95.2881 141.196L185.499 89.4762L185.291 89.1179Z" fill="white"/>
<path d="M186.342 89.7778L96.1216 141.482L96.33 141.84L186.55 90.1362L186.342 89.7778Z" fill="white"/>
<path d="M187.528 90.3848L97.3071 142.089L97.5156 142.447L187.736 90.7432L187.528 90.3848Z" fill="white"/>
<path d="M188.488 91.0559L98.2681 142.76L98.4765 143.118L188.697 91.4142L188.488 91.0559Z" fill="white"/>
<path d="M189.655 91.636L99.4438 143.355L99.6523 143.714L189.864 91.9943L189.655 91.636Z" fill="white"/>
<path d="M190.698 92.2986L100.486 144.018L100.695 144.376L190.906 92.6569L190.698 92.2986Z" fill="white"/>
<path d="M191.874 92.9275L101.653 144.631L101.862 144.99L192.082 93.2858L191.874 92.9275Z" fill="white"/>
<path d="M192.921 93.5498L102.709 145.269L102.918 145.628L193.129 93.9081L192.921 93.5498Z" fill="white"/>
</g>
<path d="M11.4767 13.8238C11.4767 13.8238 9.04335 15.325 9.8383 17.5094C10.6333 19.6938 13.2799 18.0386 13.2799 18.0386L32.1551 5.5192L31.1372 4.96108C31.1372 4.96108 28.2579 4.20087 26.1542 5.40373L11.4767 13.8142V13.8238Z" fill="black"/>
<path d="M11.38 19.0009C11.1473 19.0009 10.9146 18.9721 10.6916 18.8951C10.1294 18.7026 9.73188 18.2792 9.49921 17.6345C8.79151 15.6907 10.362 14.0933 11.283 13.5159H11.2927L25.9702 5.09584C28.1806 3.82561 31.1083 4.5762 31.2247 4.61469L31.3119 4.64356L32.8534 5.49037L13.4837 18.3466C13.4255 18.3851 12.4173 19.0009 11.38 19.0009ZM11.6611 14.1414C11.5157 14.228 9.49921 15.5463 10.1778 17.3939C10.3329 17.8269 10.585 18.0964 10.9243 18.2119C11.6611 18.4621 12.7275 17.952 13.0765 17.7403L31.4477 5.55773L31.0017 5.31716C30.6527 5.23055 28.1515 4.7013 26.3386 5.74057L11.6611 14.151V14.1414Z" fill="black"/>
<path d="M13.9485 15.2383L28.626 6.82784C29.2174 6.49104 29.1398 5.89442 28.4612 5.50951C27.7826 5.11497 26.7453 5.07648 26.1636 5.41328L11.4861 13.8237C10.8947 14.1605 10.9722 14.7571 11.6509 15.142C12.3295 15.5366 13.3668 15.5751 13.9485 15.2383Z" fill="#CBCACC"/>
<path d="M12.9407 15.8349C12.4269 15.8349 11.884 15.7098 11.4574 15.4597C10.9824 15.1902 10.7109 14.8053 10.7109 14.4011C10.7109 14.0451 10.9145 13.7275 11.2926 13.5158L25.9701 5.1054C26.6682 4.70124 27.8412 4.74936 28.6361 5.20164C29.1112 5.47108 29.3826 5.85599 29.3826 6.26016C29.3826 6.6162 29.179 6.93376 28.801 7.14546L14.1234 15.5559C13.8035 15.7387 13.3769 15.8349 12.9407 15.8349ZM27.1529 5.54806C26.8427 5.54806 26.5518 5.6058 26.3385 5.73089L11.661 14.1413C11.5834 14.1894 11.4477 14.2857 11.4477 14.4011C11.4477 14.4974 11.5447 14.6706 11.8258 14.8342C12.3978 15.1613 13.28 15.1998 13.7647 14.9304L28.4423 6.51997C28.5198 6.47186 28.6555 6.37563 28.6555 6.26016C28.6555 6.16393 28.5586 5.99071 28.2775 5.82712C27.9575 5.64429 27.5407 5.54806 27.1529 5.54806Z" fill="black"/>
<path d="M83.7011 106.569C83.7011 106.569 94.1324 110.967 102.286 97.6296L101.151 91.6731L85.4073 87.7854L78.563 93.3186L83.7011 106.569Z" fill="black"/>
<path d="M87.802 107.599C85.2814 107.599 83.5946 106.926 83.5558 106.906L83.4104 106.849L78.1172 93.2129L85.3105 87.4006L101.462 91.3845L102.673 97.7068L102.596 97.8222C97.6032 105.982 91.6992 107.599 87.802 107.599ZM83.9824 106.29C85.2717 106.772 94.4428 109.649 101.908 97.5624L100.841 91.9715L85.5044 88.1897L79.0091 93.4438L84.0018 106.3L83.9824 106.29Z" fill="black"/>
<path d="M12.8725 63.9014C12.8725 63.9014 23.3038 68.299 31.4569 54.9617L30.3227 49.0051L14.5787 45.1174L7.73438 50.6506L12.8725 63.9014Z" fill="black"/>
<path d="M16.9734 64.9214C14.4528 64.9214 12.7757 64.2478 12.7272 64.2285L12.5818 64.1708L7.28857 50.5351L14.4819 44.7229L30.633 48.7068L31.8352 55.029L31.7673 55.1445C26.7746 63.3047 20.8706 64.9214 16.9734 64.9214ZM13.1538 63.6223C14.4431 64.1034 23.6142 66.9807 31.0693 54.8943L30.0029 49.3034L14.6661 45.5216L8.17077 50.7757L13.1635 63.6319L13.1538 63.6223Z" fill="black"/>
<path d="M26.988 51.2087C28.2192 51.276 29.5861 51.8245 30.9724 52.8831C35.2768 56.1645 38.2337 63.2084 37.5647 68.6261C37.303 70.7528 36.5177 72.2925 35.4028 73.2066C35.4028 73.2066 32.6496 75.8722 26.8232 76.873C20.9968 77.8737 19.8819 61.4667 19.8819 61.4667L17.6909 54.8557C17.6909 54.8557 21.3748 50.8334 26.9783 51.2279L26.988 51.2087Z" fill="white"/>
<path d="M26.3288 77.2676C25.6017 77.2676 24.9134 77.0174 24.2735 76.517C20.4733 73.5435 19.6008 62.4483 19.5329 61.5245L17.2935 54.7596L17.4389 54.6057C17.594 54.4324 21.3167 50.4582 27.0171 50.8527C28.3452 50.9201 29.7994 51.5263 31.2051 52.5945C35.5968 55.9432 38.6215 63.1508 37.9428 68.6647C37.6811 70.8106 36.8861 72.4754 35.6549 73.4762C35.558 73.5724 32.7756 76.2187 26.9104 77.2195C26.7165 77.2484 26.5324 77.2676 26.3482 77.2676H26.3288ZM18.1175 54.9425L20.2503 61.4283C20.2503 61.5438 21.084 73.1105 24.7195 75.9493C25.3593 76.4497 26.0282 76.6325 26.765 76.5074C32.3975 75.5451 35.1217 72.9662 35.1508 72.9373C36.256 72.0327 36.9637 70.5316 37.206 68.5781C37.8556 63.2855 34.9569 56.3763 30.7495 53.1718C29.4601 52.1903 28.1513 51.6322 26.9686 51.5744C22.2377 51.2473 18.8543 54.2304 18.1272 54.9425H18.1175Z" fill="black"/>
<path d="M15.4616 59.5037C14.7927 64.9118 17.7495 71.9654 22.0539 75.2468C26.3583 78.5282 30.3912 76.8057 31.0601 71.388C31.7291 65.98 28.7722 58.9264 24.4678 55.645C20.1635 52.3635 16.1305 54.086 15.4616 59.5037Z" fill="black"/>
<path d="M26.2706 77.2675C24.8746 77.2675 23.3525 76.6805 21.8402 75.5257C17.4486 72.177 14.4239 64.9694 15.1025 59.4555C15.4418 56.6841 16.6536 54.7306 18.4956 53.9608C20.3181 53.2006 22.5188 53.701 24.6904 55.3561C29.082 58.7049 32.1067 65.9125 31.4281 71.4264C31.0888 74.1978 29.877 76.1512 28.035 76.9211C27.4824 77.152 26.8813 77.2675 26.2706 77.2675ZM20.26 54.3457C19.7365 54.3457 19.242 54.442 18.7767 54.6344C17.1771 55.2984 16.1301 57.0401 15.8296 59.5421C15.18 64.8347 18.069 71.7439 22.2861 74.9484C24.2444 76.4399 26.1833 76.9018 27.7538 76.2475C29.3534 75.5835 30.4005 73.8417 30.701 71.3398C31.3505 66.0472 28.4615 59.1379 24.2444 55.9335C22.8678 54.8846 21.4912 54.3457 20.26 54.3457Z" fill="black"/>
<path d="M17.4778 61.0337C16.9834 65.0465 19.1744 70.2717 22.3736 72.7063C25.5728 75.1409 28.5587 73.861 29.0531 69.8483C29.5475 65.8355 27.3566 60.6103 24.1574 58.1757C20.9582 55.7411 17.9723 57.021 17.4778 61.0337Z" fill="black"/>
<path d="M25.4951 74.2172C24.4578 74.2172 23.3236 73.7745 22.199 72.9277C18.9416 70.445 16.6925 65.0946 17.1966 61.0049C17.4487 58.9456 18.3503 57.4925 19.7172 56.9248C21.0744 56.357 22.7031 56.7323 24.3221 57.9641C27.5795 60.4468 29.8286 65.7971 29.3245 69.8868C29.0724 71.9461 28.1708 73.3992 26.8039 73.9669C26.387 74.1402 25.9508 74.2268 25.4854 74.2268L25.4951 74.2172ZM21.0356 57.2231C20.6479 57.2231 20.2795 57.2905 19.9402 57.4348C18.7574 57.9256 17.9819 59.215 17.7589 61.0723C17.2742 64.9888 19.4263 70.1178 22.5383 72.4946C23.9925 73.6013 25.4273 73.9381 26.5809 73.4569C27.7637 72.9662 28.5392 71.6767 28.7622 69.8195C29.2469 65.903 27.0947 60.7739 23.9828 58.3971C22.9649 57.6176 21.9469 57.2231 21.0356 57.2231Z" fill="#CBCACC"/>
<path d="M19.252 60.5718C19.4652 58.8108 20.1632 57.5791 21.1521 56.9536C22.0828 56.9729 23.1298 57.3674 24.1962 58.1757C27.3954 60.6103 29.5767 65.8356 29.0919 69.8483C28.8786 71.6093 28.1806 72.841 27.1918 73.4665C26.2611 73.4473 25.2141 73.0527 24.1477 72.2444C20.9485 69.8098 18.7672 64.5846 19.252 60.5718Z" fill="black"/>
<path d="M27.2598 73.7456H27.1725C26.1449 73.7167 25.0397 73.2741 23.9636 72.4658C20.7063 69.983 18.4571 64.6327 18.9613 60.543C19.1745 58.7724 19.9016 57.4155 20.9874 56.7227L21.0553 56.6746H21.1425C22.1701 56.7034 23.2753 57.1461 24.3514 57.9544C27.6088 60.4371 29.8579 65.7875 29.3538 69.8772C29.1405 71.6478 28.4134 73.0046 27.3276 73.6975L27.2598 73.7456ZM19.5235 60.6007C19.0388 64.5172 21.191 69.6463 24.3029 72.0231C25.2433 72.7448 26.2128 73.1394 27.095 73.1875C27.9966 72.5716 28.6073 71.3784 28.7915 69.8098C29.2762 65.8933 27.1241 60.7643 24.0121 58.3875C23.0717 57.6657 22.1023 57.2712 21.2201 57.2231C20.3185 57.8389 19.7077 59.0322 19.5138 60.5911L19.5235 60.6007Z" fill="#CBCACC"/>
<path d="M25.059 67.0961C24.8166 67.0961 24.5645 66.9998 24.3222 66.8074C23.6532 66.2974 23.217 65.2485 23.3236 64.4209C23.3818 63.959 23.5951 63.6318 23.9247 63.4875C24.2543 63.3527 24.6324 63.4297 24.9911 63.7088C25.66 64.2188 26.0963 65.2677 25.9896 66.0953C25.9315 66.5572 25.7182 66.8844 25.3886 67.0287C25.2819 67.0768 25.1753 67.0961 25.059 67.0961ZM23.8762 64.4979C23.7987 65.133 24.1574 65.9894 24.6615 66.3743C24.8554 66.5187 25.0396 66.5764 25.1753 66.5187C25.311 66.4609 25.408 66.2877 25.437 66.0375C25.5146 65.4024 25.1559 64.546 24.6518 64.1611C24.4579 64.0167 24.2737 63.959 24.138 64.0167C24.0022 64.0745 23.9053 64.2477 23.8762 64.4979Z" fill="#CBCACC"/>
<path d="M25.9507 63.5066L25.3981 63.4393L25.6404 61.4377C25.6598 61.2453 25.5338 60.9854 25.4078 60.9181C25.1363 60.7545 24.8649 60.7064 24.6613 60.7834C24.6904 60.7834 24.6807 60.9085 24.7582 61.0624L25.0975 61.7168L24.5934 61.967L24.2541 61.3126C24.1184 61.0528 24.0893 60.7641 24.1766 60.5524C24.2347 60.4177 24.3317 60.3118 24.4577 60.2637C24.8261 60.1194 25.272 60.1867 25.6986 60.4369C26.0282 60.6294 26.2512 61.1105 26.2027 61.5051L25.9604 63.5066H25.9507Z" fill="#CBCACC"/>
<path d="M23.4011 62.4964L22.1408 60.4467C22.1021 60.3794 22.0536 60.3409 22.0245 60.312C21.8888 60.5622 21.8306 60.9182 21.85 61.3224C21.8597 61.5245 22.0051 61.6977 22.0536 61.7073L22.5189 61.8132L22.4026 62.3617L21.9372 62.2558C21.5689 62.1692 21.3168 61.7266 21.2974 61.3609C21.2586 60.8124 21.3556 60.3312 21.5785 59.9752C21.6755 59.8212 21.8209 59.7346 21.9954 59.7346C22.2281 59.7346 22.4607 59.8886 22.6159 60.158L23.8762 62.2077L23.4011 62.4964Z" fill="#CBCACC"/>
<path d="M21.9469 66.519C21.7724 66.519 21.5979 66.4227 21.4622 66.2591C21.1132 65.855 20.8321 65.345 20.6576 64.7964C20.5606 64.4981 20.58 64.1998 20.7254 64.017C20.8224 63.8919 20.9581 63.8149 21.1326 63.8245L22.6353 63.8727L22.6159 64.4308L21.1617 64.3827C21.1617 64.3827 21.152 64.5174 21.1908 64.6329C21.3459 65.1044 21.5979 65.5663 21.8985 65.9127L22.0148 65.4412L22.5577 65.5663L22.422 66.1148C22.3735 66.3169 22.2378 66.4612 22.0536 66.4997C22.0148 66.4997 21.9857 66.5093 21.9469 66.5093V66.519Z" fill="#CBCACC"/>
<path d="M24.4383 70.339C24.1765 70.339 23.8954 70.2523 23.6142 70.0888C23.2846 69.8963 23.0617 69.4151 23.1101 69.0206L23.3525 67.019L23.9051 67.0864L23.6627 69.088C23.6433 69.2804 23.7694 69.5402 23.8954 69.6076C24.1765 69.7712 24.4383 69.8193 24.6419 69.7423C24.5934 69.7423 24.6225 69.6172 24.5449 69.4633L24.2056 68.8089L24.7097 68.5587L25.049 69.2131C25.1848 69.4729 25.2138 69.7616 25.1266 69.9733C25.0781 70.108 24.9715 70.2139 24.8455 70.262C24.7097 70.3101 24.574 70.339 24.4286 70.339H24.4383Z" fill="#CBCACC"/>
<path d="M27.3084 70.8008C27.0757 70.8008 26.8431 70.6469 26.6783 70.3774L25.418 68.3277L25.893 68.0391L27.1533 70.0887C27.1921 70.1561 27.2405 70.1946 27.2696 70.2235C27.4054 69.9733 27.4635 69.6172 27.4441 69.2131C27.4344 69.011 27.289 68.8378 27.2405 68.8281L26.7752 68.7223L26.8915 68.1738L27.3569 68.2796C27.7253 68.3662 27.9773 68.8089 27.9967 69.1746C28.0355 69.7231 27.9386 70.2042 27.7156 70.5603C27.6186 70.7142 27.4732 70.8008 27.2987 70.8008H27.3084Z" fill="#CBCACC"/>
<path d="M28.19 66.7208C28.19 66.7208 28.1803 66.7208 28.1706 66.7208L26.668 66.6727L26.6874 66.1146L28.1415 66.1627C28.1415 66.1627 28.1512 66.028 28.1125 65.9125C27.9573 65.441 27.7053 64.9791 27.4048 64.6327L27.2884 65.1042L26.7455 64.9791L26.8812 64.4306C26.9297 64.2285 27.0654 64.0841 27.2496 64.0457C27.4532 63.9975 27.6762 64.0842 27.8507 64.2959C28.1997 64.7096 28.4809 65.21 28.6554 65.7585C28.7523 66.0568 28.7329 66.3552 28.5875 66.538C28.4905 66.6631 28.3548 66.7305 28.1997 66.7305L28.19 66.7208Z" fill="#CBCACC"/>
<path d="M25.9507 63.5066L25.3981 63.4393L25.6404 61.4377C25.6598 61.2453 25.5338 60.9854 25.4078 60.9181C25.1363 60.7545 24.8649 60.7064 24.6613 60.7834C24.6904 60.7834 24.6807 60.9085 24.7582 61.0624L25.0975 61.7168L24.5934 61.967L24.2541 61.3126C24.1184 61.0528 24.0893 60.7641 24.1766 60.5524C24.2347 60.4177 24.3317 60.3118 24.4577 60.2637C24.8261 60.1194 25.272 60.1867 25.6986 60.4369C26.0282 60.6294 26.2512 61.1105 26.2027 61.5051L25.9604 63.5066H25.9507Z" fill="#CBCACC"/>
<path d="M100.928 93.155C102.159 93.2223 103.526 93.7708 104.912 94.8293C109.217 98.1108 112.174 105.155 111.505 110.572C111.243 112.699 110.458 114.239 109.343 115.153C109.343 115.153 106.59 117.818 100.763 118.819C94.9367 119.82 93.8218 103.413 93.8218 103.413L91.6309 96.802C91.6309 96.802 95.3148 92.7797 100.918 93.1742L100.928 93.155Z" fill="white"/>
<path d="M100.269 119.214C99.5416 119.214 98.8533 118.963 98.2135 118.463C94.4132 115.49 93.5407 104.394 93.4728 103.471L91.2334 96.7057L91.3788 96.5517C91.5339 96.3785 95.2566 92.4042 100.957 92.7988C102.285 92.8661 103.73 93.4724 105.145 94.5405C109.537 97.8893 112.561 105.097 111.883 110.611C111.621 112.757 110.826 114.421 109.595 115.422C109.498 115.518 106.716 118.165 100.85 119.166C100.656 119.194 100.472 119.214 100.288 119.214H100.269ZM92.0574 96.8885L94.1902 103.374C94.1902 103.49 95.024 115.057 98.6594 117.895C99.2992 118.396 99.9682 118.579 100.705 118.453C106.337 117.491 109.062 114.912 109.091 114.883C110.196 113.979 110.904 112.478 111.146 110.524C111.796 105.232 108.907 98.3223 104.689 95.1179C103.4 94.1364 102.091 93.5782 100.909 93.5205C96.1582 93.1933 92.7942 96.1764 92.0671 96.8885H92.0574Z" fill="black"/>
<path d="M89.4011 101.44C88.7321 106.848 91.689 113.902 95.9933 117.183C100.298 120.465 104.331 118.742 105 113.325C105.669 107.916 102.712 100.863 98.4073 97.5815C94.1029 94.3001 90.07 96.0226 89.4011 101.44Z" fill="black"/>
<path d="M100.211 119.214C98.8145 119.214 97.2925 118.627 95.7801 117.472C91.3885 114.123 88.3638 106.916 89.0424 101.402C89.3817 98.6304 90.5935 96.6769 92.4355 95.9071C94.2581 95.1469 96.4587 95.6473 98.6303 97.3024C103.022 100.651 106.047 107.859 105.368 113.373C105.029 116.144 103.817 118.098 101.975 118.867C101.422 119.098 100.821 119.214 100.211 119.214ZM94.1999 96.2824C93.6764 96.2824 93.182 96.3786 92.7167 96.5711C91.1171 97.2351 90.07 98.9768 89.7695 101.479C89.12 106.771 92.0186 113.681 96.2261 116.885C98.1844 118.377 100.123 118.838 101.694 118.184C103.293 117.52 104.34 115.778 104.651 113.267C105.3 107.974 102.401 101.065 98.1941 97.8605C96.8174 96.8116 95.4408 96.2728 94.2096 96.2728L94.1999 96.2824Z" fill="black"/>
<path d="M91.4183 102.98C90.9239 106.993 93.1148 112.218 96.314 114.653C99.5132 117.087 102.499 115.807 102.994 111.795C103.488 107.782 101.297 102.557 98.0978 100.122C94.8986 97.6874 91.9127 98.9672 91.4183 102.98Z" fill="black"/>
<path d="M99.4356 116.163C98.3982 116.163 97.264 115.721 96.1394 114.874C92.8821 112.391 90.6329 107.041 91.137 102.951C91.3891 100.892 92.2907 99.4388 93.6576 98.8711C95.0149 98.3033 96.6435 98.6786 98.2625 99.9103C101.52 102.393 103.769 107.743 103.265 111.833C103.013 113.892 102.111 115.345 100.744 115.913C100.327 116.086 99.8912 116.173 99.4259 116.173L99.4356 116.163ZM94.9761 99.1598C94.5883 99.1598 94.2199 99.2271 93.8806 99.3715C92.6979 99.8622 91.9223 101.152 91.6993 103.009C91.2146 106.925 93.3668 112.054 96.4787 114.431C97.9329 115.538 99.3677 115.875 100.521 115.394C101.704 114.903 102.48 113.613 102.703 111.756C103.187 107.84 101.035 102.711 97.9232 100.334C96.9053 99.5543 95.8874 99.1598 94.9761 99.1598Z" fill="#CBCACC"/>
<path d="M93.1924 102.508C93.4057 100.747 94.1037 99.5156 95.0925 98.8901C96.0232 98.9094 97.0702 99.3039 98.1366 100.112C101.336 102.547 103.517 107.772 103.032 111.785C102.819 113.546 102.121 114.778 101.132 115.403C100.202 115.384 99.1545 114.989 98.0881 114.181C94.8889 111.746 92.7077 106.521 93.1924 102.508Z" fill="black"/>
<path d="M101.2 115.692H101.113C100.085 115.663 98.9801 115.22 97.9041 114.412C94.6467 111.929 92.3976 106.579 92.9017 102.489C93.115 100.719 93.8421 99.3619 94.9278 98.6691L94.9957 98.6208H95.083C96.1106 98.6497 97.2158 99.0925 98.2918 99.9008C101.549 102.383 103.798 107.734 103.294 111.823C103.081 113.594 102.354 114.951 101.268 115.644L101.2 115.692ZM95.1702 99.1693C94.2686 99.7852 93.6579 100.978 93.4737 102.537C92.9889 106.454 95.1411 111.583 98.2531 113.96C99.1934 114.681 100.163 115.076 101.045 115.124C101.947 114.508 102.557 113.315 102.742 111.746C103.226 107.83 101.074 102.701 97.9622 100.324C97.0219 99.6025 96.0524 99.2079 95.1702 99.1598V99.1693Z" fill="#CBCACC"/>
<path d="M98.9994 109.042C98.757 109.042 98.505 108.946 98.2626 108.754C97.5937 108.244 97.1574 107.195 97.2641 106.367C97.3222 105.905 97.5355 105.578 97.8651 105.434C98.1947 105.299 98.5728 105.376 98.9412 105.655C99.6101 106.165 100.046 107.214 99.9398 108.042C99.8816 108.503 99.6683 108.831 99.3387 108.975C99.2321 109.023 99.1254 109.042 99.0091 109.042H98.9994ZM98.185 105.934C98.185 105.934 98.1075 105.934 98.0784 105.953C97.9427 106.011 97.8457 106.184 97.8166 106.435C97.7391 107.07 98.0978 107.926 98.6019 108.311C98.7958 108.455 98.98 108.513 99.1157 108.455C99.2514 108.398 99.3484 108.224 99.3775 107.974C99.455 107.339 99.0963 106.483 98.5922 106.098C98.4468 105.992 98.3111 105.934 98.1947 105.934H98.185Z" fill="#CBCACC"/>
<path d="M99.8911 105.453L99.3385 105.386L99.5809 103.384C99.6003 103.192 99.4742 102.932 99.3482 102.864C99.0671 102.701 98.8053 102.653 98.6017 102.73C98.6211 102.71 98.6211 102.855 98.6987 103.009L99.038 103.663L98.5339 103.913L98.1945 103.259C98.0588 102.999 98.0297 102.71 98.117 102.499C98.1655 102.364 98.2721 102.258 98.3981 102.21C98.7665 102.066 99.2125 102.133 99.639 102.383C99.9686 102.576 100.192 103.057 100.143 103.451L99.9008 105.453H99.8911Z" fill="#CBCACC"/>
<path d="M97.3415 104.433L96.0813 102.383C96.0425 102.316 95.994 102.278 95.9649 102.249C95.8292 102.499 95.771 102.855 95.7904 103.259C95.8001 103.461 95.9455 103.625 95.994 103.644L96.4594 103.75L96.343 104.298L95.8777 104.193C95.5093 104.106 95.2572 103.663 95.2378 103.298C95.1991 102.749 95.296 102.268 95.519 101.912C95.6159 101.758 95.7613 101.671 95.9358 101.671C96.1685 101.671 96.4012 101.825 96.5563 102.095L97.8166 104.144L97.3415 104.433Z" fill="#CBCACC"/>
<path d="M95.8874 108.455C95.7129 108.455 95.5384 108.369 95.4026 108.195C95.0536 107.782 94.7725 107.281 94.598 106.733C94.5011 106.434 94.5204 106.136 94.6659 105.953C94.7628 105.828 94.9082 105.751 95.073 105.761L96.5757 105.809L96.5563 106.367L95.1021 106.319C95.1021 106.319 95.0924 106.454 95.1312 106.569C95.2863 107.041 95.5384 107.503 95.8389 107.849L95.9552 107.377L96.4981 107.503L96.3624 108.051C96.3139 108.253 96.1782 108.397 95.994 108.436C95.9552 108.436 95.9261 108.446 95.8874 108.446V108.455Z" fill="#CBCACC"/>
<path d="M98.3787 112.285C98.117 112.285 97.8358 112.199 97.5547 112.035C97.2251 111.843 97.0021 111.361 97.0506 110.967L97.2929 108.965L97.8455 109.033L97.6031 111.034C97.5838 111.227 97.7098 111.487 97.8358 111.554C98.117 111.717 98.3787 111.766 98.5823 111.689C98.5532 111.689 98.5629 111.564 98.4853 111.41L98.146 110.755L98.6502 110.505L98.9895 111.159C99.1252 111.419 99.1543 111.708 99.067 111.92C99.0089 112.054 98.9119 112.16 98.7859 112.208C98.6502 112.256 98.5144 112.285 98.369 112.285H98.3787Z" fill="#CBCACC"/>
<path d="M101.248 112.747C101.015 112.747 100.783 112.593 100.627 112.324L99.3672 110.274L99.8422 109.985L101.103 112.035C101.141 112.102 101.19 112.141 101.219 112.17C101.355 111.92 101.413 111.564 101.393 111.159C101.384 110.957 101.238 110.784 101.19 110.774L100.724 110.669L100.841 110.12L101.306 110.226C101.674 110.313 101.927 110.755 101.946 111.121C101.985 111.669 101.888 112.151 101.665 112.507C101.568 112.661 101.422 112.747 101.248 112.747Z" fill="#CBCACC"/>
<path d="M102.13 108.667C102.13 108.667 102.121 108.667 102.111 108.667L100.608 108.619L100.628 108.061L102.082 108.109C102.082 108.109 102.092 107.974 102.053 107.868C101.898 107.397 101.646 106.935 101.345 106.588L101.229 107.06L100.686 106.935L100.822 106.386C100.87 106.184 101.006 106.04 101.19 106.001C101.403 105.953 101.617 106.04 101.791 106.252C102.14 106.665 102.421 107.166 102.596 107.714C102.693 108.013 102.673 108.311 102.528 108.494C102.431 108.619 102.295 108.686 102.14 108.686L102.13 108.667Z" fill="#CBCACC"/>
<path d="M99.8911 105.453L99.3385 105.386L99.5809 103.384C99.6003 103.192 99.4742 102.932 99.3482 102.864C99.0671 102.701 98.8053 102.653 98.6017 102.73C98.6211 102.71 98.6211 102.855 98.6987 103.009L99.038 103.663L98.5339 103.913L98.1945 103.259C98.0588 102.999 98.0297 102.71 98.117 102.499C98.1655 102.364 98.2721 102.258 98.3981 102.21C98.7665 102.066 99.2125 102.133 99.639 102.383C99.9686 102.576 100.192 103.057 100.143 103.451L99.9008 105.453H99.8911Z" fill="#CBCACC"/>
<path d="M155.014 99.8428C155.014 99.8428 149.139 103.374 144.224 100.844C140.143 98.7362 150.06 95.551 150.06 95.551L153.667 97.5237L155.014 99.8428Z" fill="black"/>
<path d="M148.218 102.124C146.861 102.124 145.426 101.864 144.059 101.161C143.226 100.728 142.828 100.199 142.877 99.5831C143.051 97.5142 148.8 95.5704 149.944 95.1951L150.089 95.147L153.919 97.2448L155.499 99.9584L155.198 100.141C155.014 100.247 151.863 102.114 148.209 102.114L148.218 102.124ZM150.021 95.936C147.53 96.754 143.71 98.438 143.604 99.6409C143.575 99.9392 143.846 100.228 144.389 100.517C148.441 102.605 153.25 100.363 154.51 99.6986L153.395 97.7836L150.021 95.936Z" fill="black"/>
<path d="M42.2275 0.428393C42.2857 0.389902 42.3438 0.370651 42.4214 0.370651C46.1247 0.245553 56.8275 2.10278 82.2563 15.1033C105.979 27.2282 125.882 46.6568 131.068 54.7786C132.416 56.886 134.035 58.5892 135.731 59.7055C140.743 63.0254 150.816 70.7237 158.814 81.9633C159.212 82.5118 159.444 83.2143 159.444 83.8205C159.464 85.1677 159.386 87.6023 158.746 89.4403C158.659 89.6905 158.688 90.0273 158.843 90.3641C159.153 91.0473 159.502 92.5292 158.63 95.0023C158.591 95.1082 158.63 95.2718 158.707 95.4065L159.212 96.2148C159.328 96.4073 159.338 96.6382 159.212 96.7056C159.212 96.7056 158.126 97.7064 155.721 99.477C154.801 100.151 153.56 100.208 152.58 99.6309C151.669 99.0921 150.545 99.1017 149.643 99.6502C146.938 101.296 137.127 107.098 130.642 110.409C129.246 111.121 128.121 112.266 127.433 113.671L127.19 114.171C126.396 115.797 125.058 117.116 123.41 117.886C121.461 118.79 119.415 119.724 117.263 120.667L109.876 99.5732L97.341 90.5758L42.5959 46.5414L2.35385 26.7374L0.725168 24.1777C0.676695 24.1007 0.696085 24.0045 0.763947 23.9468C2.47019 22.6188 25.4559 5.58627 42.2566 0.428393H42.2275Z" fill="white"/>
<path d="M117.031 121.148L109.547 99.7947L97.0989 90.8646L42.3733 46.8494L2.08275 27.0166L0.395899 24.3703C0.250481 24.1394 0.298956 23.8314 0.512236 23.6678C0.744905 23.485 24.6807 5.4613 42.0824 0.101345C42.1891 0.0436075 42.2957 0.0147423 42.4023 0.0147423C45.5337 -0.100733 55.713 1.14062 82.4117 14.7859C107.094 27.3919 126.473 46.936 131.359 54.5862C132.668 56.6359 134.248 58.3007 135.916 59.4073C140.046 62.1402 150.584 69.8001 159.096 81.7613C159.522 82.3676 159.784 83.1374 159.794 83.8206C159.813 85.1486 159.735 87.6698 159.076 89.5655C159.028 89.6906 159.028 89.9312 159.163 90.2199C159.483 90.932 159.881 92.5101 158.96 95.1276C158.96 95.1276 158.97 95.1757 158.999 95.2142L159.503 96.0225C159.638 96.2342 159.687 96.494 159.629 96.6961C159.59 96.8212 159.522 96.927 159.425 96.9944C159.241 97.158 158.145 98.1395 155.925 99.7658C154.888 100.526 153.492 100.593 152.377 99.939C151.582 99.4675 150.603 99.4771 149.818 99.9583C146.987 101.69 137.215 107.455 130.787 110.736C129.469 111.41 128.383 112.507 127.734 113.834L127.491 114.335C126.658 116.038 125.252 117.414 123.536 118.223C121.52 119.166 119.455 120.099 117.38 121.004L117.021 121.158L117.031 121.148ZM2.58687 26.4489L42.7707 46.2239L42.7998 46.2528L97.5449 90.2872L110.167 99.3424L117.467 120.176C119.406 119.32 121.355 118.444 123.245 117.559C124.816 116.827 126.095 115.567 126.851 114.017L127.094 113.517C127.811 112.054 129.004 110.842 130.468 110.091C136.876 106.819 146.619 101.065 149.449 99.3424C150.467 98.7169 151.737 98.7169 152.765 99.3232C153.628 99.8332 154.704 99.7754 155.509 99.1884C157.622 97.6391 158.727 96.6672 158.931 96.4748C158.931 96.4555 158.911 96.4363 158.902 96.417L158.398 95.6087C158.262 95.3874 158.213 95.1083 158.291 94.8966C159.125 92.5197 158.785 91.1341 158.514 90.5182C158.33 90.1044 158.291 89.6618 158.407 89.325C159.037 87.5351 159.105 85.1101 159.086 83.8303C159.086 83.2818 158.863 82.6659 158.524 82.1751C150.089 70.3101 139.639 62.7176 135.538 60.0039C133.783 58.8396 132.135 57.0978 130.768 54.9615C126.066 47.6 106.357 27.8057 82.1015 15.4114C55.5482 1.8431 45.524 0.620983 42.4508 0.726835L42.3539 0.774946C25.7568 5.87509 3.10067 22.6382 1.11329 24.1297L2.59656 26.4585L2.58687 26.4489Z" fill="black"/>
<path d="M0.696848 24.1685C0.648375 24.0915 0.667765 23.9953 0.735627 23.9375C2.44187 22.6096 25.4276 5.57701 42.2283 0.419129C42.2864 0.380637 42.3446 0.361394 42.4222 0.361394C44.0702 0.303656 47.1143 0.650075 52.2233 2.18974C50.3911 2.66126 48.5976 3.20977 47.3955 3.78715L33.8425 15.3635L18.7287 21.551L16.4408 21.3778C16.4408 21.3778 12.8926 23.5526 9.70308 28.2389C9.3056 28.8259 8.69485 29.2301 7.93867 29.4899L2.31584 26.7282L0.687159 24.1685H0.696848Z" fill="white"/>
<path d="M7.9188 29.8842L2.07299 27.007L0.386133 24.3607C0.240715 24.1297 0.289191 23.8218 0.502471 23.6582C0.73514 23.4754 24.671 5.45165 42.0727 0.0916861C42.1793 0.0339487 42.2859 0.00508349 42.3926 0.00508349C43.9631 -0.043031 46.949 0.226409 52.3101 1.85268L53.5607 2.22797L52.3004 2.54553C50.2064 3.08441 48.6165 3.60405 47.5792 4.10444L34.0165 15.6904L18.7767 21.9357L16.5275 21.7625C15.9459 22.1474 12.8048 24.3222 10.0031 28.4504C9.57656 29.0759 8.91733 29.5474 8.05452 29.8361L7.9091 29.8842H7.9188ZM2.5868 26.4488L7.97696 29.1048C8.6168 28.8642 9.10153 28.5081 9.41176 28.0462C12.6013 23.3599 16.1107 21.1755 16.2561 21.0793L16.353 21.0215L18.67 21.1947L33.6481 15.0649L47.2399 3.47895C48.1027 3.05555 49.3242 2.62251 50.885 2.18948C46.1347 0.851896 43.585 0.707558 42.4411 0.736426L42.3441 0.784537C25.7471 5.88468 3.09092 22.6478 1.10353 24.1393L2.5868 26.4681V26.4488Z" fill="black"/>
<path d="M88.7031 83.6954C89.7889 83.0699 90.991 82.4637 92.3095 81.8671C121.238 68.7992 133.928 58.3198 133.928 58.3198C133.986 58.3776 134.054 58.4257 134.112 58.4834C134.287 58.6374 134.461 58.7913 134.636 58.9453C134.752 59.0415 134.859 59.1282 134.975 59.2148C135.14 59.3399 135.305 59.4553 135.47 59.5708C135.557 59.6285 135.644 59.7055 135.731 59.7633C140.055 62.6213 148.14 68.7607 155.421 77.6041C156.575 79.0091 157.709 80.4814 158.814 82.021C159.212 82.5696 159.444 83.272 159.444 83.8783C159.464 85.2255 159.386 87.6601 158.746 89.498C158.659 89.7482 158.688 90.085 158.843 90.4218C159.153 91.1051 159.502 92.587 158.63 95.0601C158.591 95.1659 158.63 95.3295 158.707 95.4643L159.212 96.2726C159.328 96.465 159.338 96.696 159.212 96.7633C159.212 96.7633 158.126 97.7641 155.721 99.5347C154.8 100.208 153.56 100.266 152.58 99.6887C151.669 99.1498 150.545 99.1594 149.643 99.7079C146.938 101.353 137.127 107.156 130.642 110.466C129.246 111.178 128.121 112.324 127.433 113.729L127.19 114.229C126.396 115.855 125.058 117.174 123.41 117.943C121.461 118.848 119.415 119.781 117.263 120.724L109.876 99.631L97.341 90.6335L88.7322 83.7147L88.7031 83.6954Z" fill="#CBCACC"/>
<path d="M117.031 121.196L109.547 99.843L97.0988 90.9129L88.0635 83.6477L88.5191 83.3878C89.634 82.7527 90.8652 82.1272 92.1546 81.5402C120.695 68.6455 133.56 58.1469 133.686 58.0507L133.928 57.8486L134.248 58.1373C134.248 58.1373 134.316 58.1951 134.355 58.2239C134.52 58.3779 134.694 58.5319 134.869 58.6666C134.975 58.7532 135.092 58.8494 135.198 58.9264C135.353 59.0515 135.518 59.167 135.673 59.2728C135.712 59.3017 135.761 59.3306 135.799 59.3691C135.838 59.3979 135.887 59.4364 135.925 59.4653C139.231 61.6497 147.743 67.7602 155.586 77.2484L155.702 77.3831C156.943 78.8939 158.058 80.347 159.105 81.8193C159.532 82.4255 159.793 83.1954 159.803 83.8786C159.822 85.2066 159.745 87.7278 159.086 89.6235C159.037 89.7486 159.037 89.9892 159.173 90.2778C159.493 90.9899 159.89 92.5681 158.969 95.1855C158.969 95.1855 158.979 95.2336 159.008 95.2721L159.512 96.0805C159.648 96.2922 159.696 96.552 159.638 96.7541C159.6 96.8792 159.532 96.985 159.435 97.0524C159.25 97.216 158.155 98.1975 155.935 99.8238C154.898 100.584 153.502 100.651 152.387 99.997C151.592 99.5254 150.613 99.5351 149.827 100.016C146.997 101.748 137.225 107.512 130.797 110.794C129.479 111.467 128.393 112.564 127.743 113.892L127.501 114.393C126.667 116.096 125.261 117.472 123.546 118.28C121.529 119.224 119.464 120.157 117.389 121.062L117.031 121.215V121.196ZM89.3529 83.7439L97.5447 90.3356L110.167 99.3907L117.467 120.224C119.406 119.368 121.355 118.492 123.245 117.607C124.815 116.876 126.095 115.615 126.851 114.066L127.094 113.565C127.811 112.103 129.004 110.89 130.467 110.14C136.876 106.868 146.619 101.113 149.449 99.3907C150.467 98.7652 151.737 98.7652 152.765 99.3715C153.628 99.8815 154.704 99.8238 155.508 99.2368C157.622 97.6875 158.727 96.7156 158.931 96.5231C158.931 96.5039 158.911 96.4846 158.901 96.4654L158.397 95.657C158.262 95.4357 158.213 95.1566 158.291 94.9449C159.124 92.5681 158.785 91.1824 158.514 90.5665C158.33 90.1527 158.291 89.7101 158.407 89.3733C159.037 87.5834 159.105 85.1584 159.086 83.8786C159.086 83.3301 158.863 82.7142 158.523 82.2235C157.515 80.8089 156.449 79.4136 155.256 77.9605L155.15 77.8354C147.346 68.3472 138.843 62.2463 135.547 60.0715C135.489 60.033 135.441 59.9945 135.383 59.9561L135.276 59.8791C135.111 59.7636 134.937 59.6385 134.772 59.5134C134.655 59.4268 134.539 59.3306 134.423 59.2343C134.258 59.0996 134.093 58.9553 133.938 58.8109C131.97 60.3795 119.057 70.2141 92.4842 82.2138C91.3887 82.7046 90.3417 83.2339 89.3722 83.7631L89.3529 83.7439Z" fill="black"/>
<path d="M1.0162 38.9878L1.9178 34.9269C1.98566 34.6094 2.02444 34.2533 2.02444 33.8877V29.6921C2.02444 28.8068 1.79176 27.806 1.35551 26.8629L0.705978 25.4387C0.395752 24.7555 0.52178 24.0915 0.977424 24.0723C4.68074 23.9472 19.0771 23.6585 44.5156 36.6494C68.2382 48.7743 84.4377 70.3585 89.6243 78.4802C90.9719 80.5876 92.5908 82.2909 94.2874 83.4072C99.2995 86.7271 109.372 94.4254 117.37 105.665C117.768 106.213 118 106.916 118 107.522C118.02 108.869 117.942 111.304 117.302 113.142C117.215 113.392 117.244 113.729 117.399 114.066C117.709 114.749 118.058 116.231 117.186 118.704C117.147 118.81 117.186 118.973 117.263 119.108L117.768 119.916C117.884 120.109 117.894 120.34 117.768 120.407L117.254 120.667C116.11 121.235 114.733 121.273 113.26 120.773L110.565 119.859C110.167 119.724 109.789 119.686 109.45 119.753L109.081 119.82C108.955 119.849 108.752 119.734 108.538 119.551C107.627 118.8 106.997 117.366 106.997 116.173V111.179C106.997 104.616 102.838 96.3307 97.7483 93.184C92.6102 90.0181 88.3349 92.5585 87.8793 98.7076C87.8017 99.795 87.54 101.489 87.3558 102.499C87.1522 103.634 86.9971 104.732 86.7838 105.694C86.3669 107.551 84.525 107.041 83.73 106.589L35.713 78.971C34.6369 78.3551 33.745 76.7962 33.6286 75.3624L33.173 69.7137C33.1245 69.1171 33.1051 68.5398 33.076 67.9624C32.7561 61.2745 28.7717 53.5569 23.6627 50.3236C17.972 46.715 13.2701 49.8617 13.2701 57.1077L13.5609 62.9585C13.5997 63.7957 13.0665 64.1517 12.4461 63.6994C10.7107 62.4581 7.65697 60.2641 7.15285 59.7829L4.88432 57.6081C3.77915 56.5496 2.7903 55.1735 2.02444 53.6242C1.14223 51.844 0.59934 49.9194 0.473311 48.1488C0.240642 44.8482 0.434529 41.7592 1.04529 39.0167L1.0162 38.9878Z" fill="#CBCACC"/>
<path d="M115.237 121.475C114.569 121.475 113.861 121.35 113.134 121.11L110.439 120.196C110.099 120.08 109.789 120.051 109.508 120.099L109.14 120.167C108.897 120.215 108.635 120.109 108.296 119.82C107.327 119.022 106.619 117.491 106.619 116.163V111.169C106.619 104.616 102.46 96.5231 97.5352 93.4823C95.2764 92.0966 93.1048 91.7983 91.418 92.6547C89.5857 93.5785 88.4514 95.7341 88.2285 98.7268C88.1509 99.7949 87.8988 101.46 87.6953 102.547C87.6177 102.951 87.5498 103.355 87.4917 103.75C87.3753 104.462 87.259 105.126 87.1233 105.761C86.9197 106.656 86.4253 107.041 86.0472 107.205C85.2232 107.561 84.1761 107.262 83.5266 106.887L35.5095 79.2693C34.3462 78.5957 33.367 76.9213 33.241 75.372L32.7951 69.7234C32.7563 69.2903 32.7466 68.8669 32.7272 68.4435L32.7078 67.9624C32.3782 61.1975 28.4034 53.7397 23.4592 50.6123C21.0065 49.063 18.6604 48.7454 16.8572 49.7366C14.802 50.8528 13.629 53.5376 13.629 57.0981L13.9198 62.9296C13.9489 63.4973 13.755 63.94 13.3769 64.1421C13.0376 64.3249 12.611 64.2672 12.2232 63.9881C10.0614 62.4484 7.37598 60.5046 6.89125 60.0331L4.62273 57.8583C3.48847 56.7709 2.47054 55.3564 1.68529 53.7782C0.773998 51.9402 0.22141 49.9964 0.095381 48.168C-0.137288 44.8193 0.0565993 41.7111 0.667355 38.9301L1.56895 34.8692C1.63681 34.5709 1.66589 34.2533 1.66589 33.9069V29.7113C1.66589 28.8741 1.44292 27.9311 1.03575 27.0361L0.386213 25.612C0.12446 25.0538 0.114765 24.4765 0.347434 24.1012C0.492852 23.8702 0.715828 23.7451 0.97758 23.7355C12.6692 23.3409 27.7733 27.7097 44.6903 36.3511C70.7589 49.6692 86.9585 73.6399 89.9347 78.307C91.2435 80.3567 92.8237 82.0214 94.4911 83.1281C98.621 85.861 109.159 93.5208 117.671 105.482C118.097 106.088 118.359 106.858 118.369 107.541C118.388 108.869 118.32 111.391 117.651 113.286C117.603 113.411 117.603 113.652 117.739 113.941C118.059 114.653 118.456 116.231 117.535 118.848C117.535 118.848 117.545 118.896 117.574 118.935L118.078 119.743C118.214 119.955 118.262 120.215 118.204 120.417C118.165 120.561 118.068 120.677 117.942 120.744L117.428 121.004C116.769 121.331 116.032 121.495 115.257 121.495L115.237 121.475ZM109.789 119.349C110.08 119.349 110.371 119.397 110.681 119.503L113.376 120.417C114.743 120.888 116.032 120.85 117.079 120.33L117.467 120.138C117.467 120.138 117.458 120.119 117.448 120.099L116.944 119.291C116.808 119.07 116.759 118.791 116.837 118.579C117.671 116.192 117.331 114.816 117.06 114.2C116.876 113.787 116.837 113.344 116.953 113.007C117.584 111.217 117.651 108.792 117.632 107.513C117.632 106.964 117.419 106.348 117.07 105.857C108.635 93.9923 98.1848 86.3998 94.084 83.6862C92.3293 82.5218 90.6812 80.7801 89.3142 78.6438C86.3477 74.0055 70.2548 50.1792 44.351 36.9477C27.5406 28.3641 12.5529 24.0242 0.996974 24.4091C0.900028 24.5438 0.861246 24.8614 1.04544 25.2655L1.69497 26.6897C2.14092 27.6713 2.39298 28.7298 2.39298 29.6632V33.8588C2.39298 34.2533 2.35421 34.6286 2.27665 34.975L1.37506 39.0359C0.773999 41.7496 0.589801 44.7904 0.812775 48.0718C0.92911 49.7847 1.472 51.69 2.32512 53.4125C3.0716 54.9233 4.04106 56.2609 5.11715 57.2906L7.38567 59.4653C7.73468 59.8021 9.65419 61.2167 12.6401 63.353C12.7952 63.4588 12.9406 63.507 13.0279 63.4588C13.1151 63.4107 13.2024 63.2279 13.183 62.92L12.8922 57.0692C12.8922 53.2201 14.2106 50.3043 16.4985 49.0533C18.5538 47.9371 21.1616 48.2546 23.847 49.9579C28.9754 53.2008 33.0859 60.9088 33.4252 67.8854L33.4446 68.3761C33.464 68.7899 33.4834 69.2037 33.5125 69.6271L33.9681 75.2758C34.0747 76.5845 34.9085 78.0472 35.8682 78.5957L83.8853 106.213C84.4088 106.512 85.2135 106.723 85.7467 106.492C86.0763 106.348 86.2992 106.04 86.4059 105.559C86.5416 104.953 86.6482 104.289 86.7743 103.586C86.8421 103.192 86.91 102.788 86.9779 102.374C87.1718 101.296 87.4238 99.6698 87.5014 98.6209C87.7437 95.3684 89.0234 93.0012 91.0883 91.9619C93.0176 90.99 95.4412 91.2979 97.923 92.8279C103.032 95.9746 107.346 104.356 107.346 111.131V116.125C107.346 117.232 107.947 118.569 108.752 119.224C108.955 119.397 109.043 119.416 109.043 119.416L109.372 119.349C109.508 119.32 109.644 119.31 109.789 119.31V119.349Z" fill="black"/>
<path d="M117.157 119.07C115.257 119.002 109.052 118.357 108.732 112.921L108.693 112.574V112.305C108.703 112.208 108.713 112.112 108.713 112.016C108.713 104.404 104.389 94.4253 97.157 90.8937C94.4328 89.5657 92.0092 89.3732 90.1575 90.3548C88.3349 91.3171 87.1522 93.3571 86.745 96.2633C86.5123 97.928 86.2797 99.3041 85.921 100.603C85.6689 101.517 85.3587 102.124 85.0679 102.701L84.9128 103.009C84.777 103.288 84.5347 103.48 84.2244 103.577C83.856 103.683 83.4392 103.625 83.0805 103.403L38.1947 76.8731C34.6175 74.7176 34.5205 69.3287 34.5205 69.2806C34.5205 61.0627 29.3339 51.4013 22.9549 47.7446C20.318 46.2338 17.778 45.9162 15.8197 46.8496C13.8324 47.7927 12.4751 49.9771 12.0001 53.0083C11.7868 54.3266 11.0403 55.1253 9.99333 55.1446C8.89785 55.1446 7.54061 54.6057 5.91193 53.4798C3.51738 51.8247 1.43305 49.2072 0.0273438 46.099L0.696262 45.8007C2.0438 48.7838 4.05058 51.305 6.3288 52.8832C8.19984 54.1727 9.34379 54.4325 9.98363 54.4132C10.9337 54.394 11.2052 53.3355 11.2827 52.8832C11.7965 49.6114 13.2992 47.2345 15.5095 46.1856C17.7005 45.1464 20.4731 45.4735 23.3233 47.1094C29.9059 50.8816 35.2573 60.8221 35.2573 69.271C35.2573 69.3191 35.4027 74.3326 38.5825 76.2476L83.4683 102.778C83.6525 102.893 83.8657 102.922 84.0305 102.874C84.1372 102.845 84.2244 102.778 84.2632 102.682L84.4183 102.374C84.7092 101.796 84.9903 101.248 85.223 100.411C85.572 99.1501 85.7949 97.8029 86.0276 96.1574C86.4736 93.0107 87.7823 90.7878 89.8182 89.71C91.8831 88.6227 94.5394 88.8055 97.4769 90.2393C104.971 93.896 109.44 104.183 109.44 112.006C109.44 112.122 109.44 112.228 109.43 112.334V112.536L109.469 112.853C109.75 117.703 115.451 118.28 117.196 118.348L117.166 119.07H117.157Z" fill="black"/>
<path d="M2.17956 33.7048C3.43016 33.9646 6.78447 35.0809 11.0888 37.5155C10.226 34.388 8.25804 31.4915 6.04769 30.1251C4.92312 29.4322 2.82909 28.2967 1.7627 27.9407C1.7627 27.9407 2.02445 29.336 2.02445 31.251C2.02445 33.1659 2.17956 33.7048 2.17956 33.7048Z" fill="white"/>
<path d="M11.6709 38.266L10.9051 37.833C6.63947 35.4273 3.28517 34.311 2.10243 34.0608L1.88915 34.0127L1.83099 33.8106C1.8116 33.7529 1.65648 33.1659 1.65648 31.2605C1.65648 29.3552 1.40442 28.0272 1.40442 28.0176L1.28809 27.4114L1.87945 27.6135C3.01371 27.9984 5.14651 29.1628 6.2323 29.8364C8.51052 31.2413 10.5561 34.2244 11.4383 37.4385L11.6709 38.2756V38.266ZM2.49021 33.4065C3.84744 33.7336 6.75581 34.744 10.4688 36.7552C9.52845 34.0416 7.77374 31.6166 5.84452 30.433C4.92354 29.8652 3.31425 28.9799 2.20907 28.5084C2.28663 29.105 2.38357 30.0769 2.38357 31.2509C2.38357 32.4249 2.45143 33.1081 2.49021 33.3968V33.4065Z" fill="black"/>
<path d="M4.41901 34.5996L4.13786 33.9356C4.49656 33.7817 4.92312 33.3486 4.92312 32.6077C4.92312 31.2316 4.2542 29.7304 3.43985 29.2589C3.38169 29.2204 3.28475 29.1627 3.17811 29.0953C2.96483 28.9606 2.4704 28.6527 2.32498 28.6238L2.2959 27.9021C2.54796 27.8828 2.87757 28.056 3.56588 28.4891C3.66283 28.5468 3.75008 28.6045 3.79856 28.6334C5.00068 29.3166 5.65021 31.1931 5.65021 32.6077C5.65021 33.7047 4.99098 34.3687 4.41901 34.6092V34.5996Z" fill="black"/>
<path d="M7.18248 35.4463L6.52325 35.1384C6.60081 34.9844 6.62989 34.7919 6.62989 34.5706C6.62989 33.7719 6.19364 32.8577 5.67983 32.5594C5.60227 32.5113 5.48594 32.4632 5.38899 32.4921L5.16602 31.7992C5.35991 31.7415 5.66044 31.7126 6.03853 31.9243C6.77531 32.3477 7.34729 33.5025 7.34729 34.561C7.34729 34.8978 7.28913 35.1865 7.1631 35.4463H7.18248Z" fill="black"/>
<path d="M19.8237 37.2555C19.688 37.1496 6.12536 26.4778 0.580078 24.5148L0.822442 23.8315C6.48405 25.8427 19.7171 36.2451 20.2794 36.6877L19.8237 37.2555Z" fill="black"/>
<path d="M66.0766 72.533C66.1929 72.7158 65.9797 72.9275 65.7955 72.8121L60.638 69.4248C59.3486 68.578 58.1174 67.2115 57.1576 65.5564C57.051 65.3736 57.274 65.1715 57.4485 65.2966L63.1682 69.3574C64.225 70.1176 65.2332 71.2243 66.0669 72.533H66.0766Z" fill="black"/>
<path d="M65.9116 73.2067C65.8049 73.2067 65.6983 73.1778 65.6013 73.1104L60.4438 69.7232C59.1157 68.8475 57.836 67.4329 56.8569 65.7393C56.7211 65.5083 56.7696 65.2196 56.9635 65.0368C57.1574 64.854 57.4482 64.8444 57.6712 64.9983L63.391 69.0592C64.4865 69.8483 65.5238 70.9838 66.3866 72.3406C66.532 72.5716 66.4932 72.8602 66.309 73.0431C66.2024 73.1489 66.057 73.2067 65.9116 73.2067ZM57.9039 66.0568C58.757 67.3559 59.7846 68.4241 60.8413 69.1169L65.3105 72.0519C64.6028 71.0704 63.7981 70.2428 62.9644 69.6462L57.9136 66.0568H57.9039Z" fill="black"/>
<path d="M36.4985 53.0852C36.6148 53.2681 36.4015 53.4798 36.2173 53.3643L31.0598 49.977C29.7705 49.1302 28.5393 47.7638 27.5795 46.1086C27.4729 45.9258 27.6958 45.7237 27.8703 45.8488L33.5901 49.9097C34.6468 50.6699 35.6551 51.7765 36.4888 53.0852H36.4985Z" fill="black"/>
<path d="M36.3241 53.7587C36.2175 53.7587 36.1109 53.7298 36.0139 53.6624L30.8564 50.2752C29.5283 49.3995 28.2486 47.9849 27.2694 46.2913C27.1337 46.0603 27.1822 45.7717 27.3761 45.5888C27.57 45.406 27.8608 45.3964 28.0838 45.5503L33.8036 49.6112C34.8991 50.4003 35.9364 51.5358 36.7992 52.8926C36.9446 53.1139 36.9058 53.4122 36.7216 53.5951C36.615 53.7009 36.4696 53.7587 36.3241 53.7587ZM28.3262 46.6088C29.1793 47.9079 30.2069 48.9761 31.2636 49.6689L35.7328 52.6039C35.0251 51.6224 34.2204 50.7948 33.3867 50.1982L28.3262 46.6088Z" fill="black"/>
<path d="M90.497 86.6885C90.274 86.7944 90.1189 86.8136 89.8475 86.9387C88.9556 87.3621 87.4529 86.3132 86.6968 84.7639C86.4932 84.3405 86.3865 83.9652 86.4835 83.6958L90.4195 86.3036C90.5067 86.3614 90.5746 86.65 90.497 86.6789V86.6885Z" fill="white"/>
<path d="M89.4111 87.4004C88.3738 87.4004 87.0748 86.3996 86.3671 84.9273C86.0956 84.3692 86.018 83.9265 86.1344 83.5801L86.2895 83.1375L90.6133 86.0147C90.8265 86.1494 90.9041 86.467 90.8847 86.6498C90.8653 86.8904 90.7102 86.9866 90.652 87.0251C90.526 87.0829 90.4291 87.1213 90.3127 87.1598C90.2158 87.1887 90.1188 87.2272 89.9928 87.2849C89.8086 87.3715 89.6147 87.41 89.4015 87.41L89.4111 87.4004ZM86.939 84.4365C86.9584 84.4847 86.9875 84.5424 87.0166 84.6098C87.734 86.0821 89.0524 86.9096 89.6826 86.6113C89.8086 86.5536 89.9153 86.5151 90.0122 86.4766L86.939 84.4365Z" fill="black"/>
<path d="M86.2023 80.2026C86.0569 80.2026 85.892 80.1545 85.7175 80.0486C76.2072 73.9766 28.5003 43.4912 22.829 39.642C18.5925 36.7648 15.7423 33.1273 14.4142 31.2124C13.9779 30.5773 13.8713 29.7786 14.1621 29.307C14.3269 29.028 14.6178 28.8933 14.9377 28.9317C18.6022 29.3552 32.0292 31.6262 50.982 42.9523C70.2547 54.4709 82.3342 71.5709 86.6288 78.3839C86.9972 78.9709 87.0166 79.6733 86.6676 80.0198C86.561 80.1256 86.3961 80.2122 86.1926 80.2122L86.2023 80.2026ZM86.115 79.4424C86.1732 79.4809 86.2023 79.4809 86.2023 79.4809C86.2023 79.4424 86.241 79.1248 86.0181 78.7592C81.7525 71.9943 69.7603 55.0098 50.6136 43.5682C31.7868 32.3094 18.4859 30.0672 14.8601 29.6438C14.8213 29.6438 14.8117 29.6438 14.7923 29.6727C14.6856 29.8459 14.7147 30.3463 15.0249 30.7986C16.3143 32.6751 19.1063 36.2355 23.2459 39.0358C28.9075 42.8753 76.6144 73.3607 86.115 79.4328V79.4424Z" fill="black"/>
<path d="M86.1925 80.1929C86.0471 80.1929 85.8823 80.1448 85.7078 80.0389L79.8329 76.286V76.0935C79.736 70.3679 76.5271 65.9895 76.1587 65.518L76.7307 65.0657C81.4228 70.5411 84.6996 75.3237 86.6288 78.3742C87.0069 78.9708 87.0263 79.6636 86.6676 80.01C86.5512 80.1159 86.3961 80.2025 86.1925 80.2025V80.1929ZM86.1053 79.4327C86.1635 79.4712 86.1925 79.4712 86.1925 79.4712C86.2022 79.4327 86.241 79.1151 86.0083 78.7494C84.4863 76.3437 82.1208 72.8506 78.8732 68.7897C79.7069 70.6566 80.4728 73.1201 80.5503 75.8818L86.0956 79.4231L86.1053 79.4327Z" fill="black"/>
<path d="M23.5173 40.0847L22.955 39.7094C18.7185 36.8322 15.8683 33.1947 14.5401 31.2798C14.1039 30.6447 13.9973 29.8459 14.2881 29.3744C14.4529 29.0954 14.7437 28.9606 15.0637 28.9991C16.7796 29.2012 20.4344 29.769 25.5919 31.3471L26.2221 31.5396L25.718 31.963C25.718 31.963 23.6142 33.8779 23.5173 39.4207V40.0943V40.0847ZM14.957 29.7016C14.957 29.7016 14.9279 29.7016 14.9085 29.7401C14.8019 29.9133 14.831 30.4137 15.1412 30.866C16.3724 32.6558 18.9706 35.9854 22.8096 38.7279C22.9938 34.7344 24.1862 32.6943 24.8358 31.8668C20.0176 30.4329 16.6148 29.9037 14.9764 29.7112H14.957V29.7016Z" fill="black"/>
<path d="M56.9829 61.6593L48.8783 56.463L48.9073 56.2416C48.9073 56.1647 49.8089 48.0622 48.9073 42.4039L48.791 41.6533L49.4599 42.0382C49.9737 42.3365 50.4876 42.6349 51.0014 42.9524C51.9611 43.5298 52.95 44.1457 54.0455 44.8578L54.2006 44.954V45.1368C54.2296 45.464 54.7047 53.1046 56.7502 60.7548L56.9926 61.6593H56.9829ZM49.6441 56.0973L55.7905 60.0427C54.0552 53.1912 53.551 46.561 53.4735 45.3581C52.4555 44.6942 51.5152 44.1072 50.6136 43.5683C50.313 43.3951 50.0222 43.2122 49.7314 43.0486C50.3906 48.1873 49.7799 54.8078 49.6538 56.1069L49.6441 56.0973Z" fill="black"/>
<path d="M90.8508 104.536L90.1431 104.372C95.0582 83.4617 90.2303 74.4642 90.1819 74.368L90.8217 74.012C91.0253 74.3776 95.8532 83.3077 90.8605 104.526L90.8508 104.536Z" fill="black"/>
<path d="M54.2298 86.342C53.4251 75.4007 51.2245 44.0589 51.2051 43.751L51.9322 43.7029C51.9516 44.0204 54.1425 75.3526 54.9569 86.2939L54.2298 86.3516V86.342Z" fill="black"/>
<path d="M23.4012 47.831C22.8389 42.8559 22.8389 39.4687 22.8389 39.4302H23.566C23.566 39.4302 23.566 42.8174 24.1282 47.7444L23.4012 47.8214V47.831Z" fill="black"/>
<path d="M156.188 87.3716C156.517 86.9193 156.944 86.5536 157.428 86.313L159.435 85.3123C159.387 86.6017 159.232 88.1606 158.824 89.4405C158.747 89.6907 158.776 90.0275 158.912 90.3643C159.193 91.0571 158.902 91.8462 158.262 92.2407L155.897 93.7034C154.985 94.2712 153.89 94.3674 152.901 93.9921C152.31 93.7612 152.096 92.9721 152.494 92.4332L156.188 87.3812V87.3716Z" fill="white"/>
<path d="M154.113 94.5792C153.657 94.5792 153.202 94.4926 152.765 94.329C152.387 94.1847 152.106 93.8671 151.98 93.4629C151.854 93.0395 151.932 92.5776 152.193 92.2216L155.887 87.1696C156.255 86.6692 156.73 86.265 157.264 85.9956L159.823 84.7253L159.794 85.3412C159.726 87.0541 159.513 88.4687 159.164 89.5657C159.125 89.7004 159.115 89.9506 159.241 90.2489C159.59 91.1053 159.261 92.0676 158.456 92.568L156.09 94.0307C155.48 94.406 154.801 94.5984 154.113 94.5984V94.5792ZM159.047 85.9186L157.603 86.6403C157.176 86.852 156.789 87.1792 156.488 87.593L152.794 92.645C152.668 92.8182 152.63 93.0395 152.697 93.2512C152.756 93.4437 152.882 93.588 153.046 93.6458C153.929 93.9826 154.898 93.896 155.722 93.386L158.088 91.9233C158.582 91.625 158.795 91.0091 158.582 90.4991C158.407 90.0853 158.378 89.6523 158.485 89.3155C158.776 88.4205 158.96 87.2658 159.047 85.8993V85.9186Z" fill="black"/>
<path d="M117.38 114.056C117.225 113.719 117.196 113.373 117.283 113.132C117.894 111.4 117.991 109.148 117.981 107.772C118.155 107.743 118.33 107.705 118.504 107.657C119.086 107.493 119.668 107.339 120.269 107.281L120.492 107.262H125.64C126.318 107.262 126.755 107.984 126.435 108.581C125.291 110.775 123.439 112.526 121.18 113.565L118.941 114.595C118.63 114.739 118.291 114.845 117.952 114.874C117.845 114.874 117.739 114.874 117.632 114.874C117.564 114.537 117.477 114.268 117.39 114.066L117.38 114.056Z" fill="white"/>
<path d="M117.836 115.23C117.836 115.23 117.749 115.23 117.7 115.23H117.332L117.274 114.932C117.206 114.576 117.118 114.345 117.051 114.2C116.866 113.787 116.828 113.354 116.944 113.007C117.516 111.381 117.632 109.254 117.623 107.763V107.455L117.923 107.407C118.088 107.378 118.243 107.339 118.398 107.301C118.96 107.137 119.571 106.974 120.221 106.906L120.453 106.887H125.64C126.086 106.887 126.493 107.108 126.716 107.493C126.949 107.878 126.968 108.34 126.755 108.735C125.572 110.986 123.653 112.815 121.326 113.883L119.086 114.912C118.708 115.086 118.33 115.192 117.972 115.22C117.923 115.22 117.875 115.22 117.826 115.22L117.836 115.23ZM117.719 113.902C117.797 114.075 117.865 114.277 117.923 114.499C118.194 114.479 118.485 114.393 118.796 114.258L121.035 113.228C123.207 112.228 125.019 110.515 126.125 108.398C126.212 108.225 126.212 108.022 126.105 107.859C126.008 107.695 125.843 107.599 125.65 107.599L120.308 107.618C119.717 107.676 119.145 107.83 118.611 107.984C118.524 108.013 118.437 108.032 118.359 108.051C118.35 109.581 118.204 111.621 117.642 113.238C117.584 113.402 117.623 113.661 117.729 113.892L117.719 113.902Z" fill="black"/>
<path d="M102.78 89.7966C115.364 96.321 121.752 97.187 124.729 96.9753L124.748 97.0042L123.333 101.402C123.013 102.412 122.198 103.192 121.181 103.48L120.444 103.692C118.883 104.144 117.235 104.019 115.771 103.403C111.534 97.8799 106.891 93.309 102.78 89.7966Z" fill="black"/>
<path d="M118.514 104.318C117.525 104.318 116.537 104.115 115.616 103.731L115.528 103.692L115.47 103.615C111.796 98.8229 107.443 94.2712 102.538 90.066L101.607 89.2673L102.954 89.4694C115.79 96.1188 122.091 96.7924 124.699 96.6H124.893L125.126 96.8887L125.087 97.1004L123.672 101.498C123.313 102.624 122.411 103.49 121.267 103.817L120.531 104.029C119.871 104.221 119.193 104.308 118.514 104.308V104.318ZM115.994 103.095C117.37 103.663 118.912 103.75 120.327 103.336L121.064 103.124C121.975 102.864 122.683 102.172 122.974 101.286L124.244 97.3506C121.093 97.4468 115.296 96.3787 105.136 91.3844C109.198 95.0699 112.843 98.9961 115.994 103.095Z" fill="black"/>
<path d="M115.548 103.76C115.063 103.557 114.627 103.307 114.229 103.038C110.507 100.709 107.356 97.6875 104.874 94.0596L101.442 89.2097L102.043 88.7959L105.475 93.6555C107.909 97.1967 110.992 100.151 114.637 102.441C115.005 102.701 115.403 102.922 115.839 103.105L115.548 103.769V103.76Z" fill="black"/>
<path d="M155.857 82.3581L154.675 84.0229C154.142 84.7735 153.153 85.0525 152.3 84.6868L148.897 83.2338C151.049 78.1625 145.416 67.356 145.281 67.0962C144.311 66.2397 150.729 71.9653 155.693 77.9219C156.749 79.1922 156.817 81.0109 155.857 82.3485V82.3581Z" fill="black"/>
<path d="M153.066 85.2063C152.756 85.2063 152.445 85.1486 152.155 85.0235L148.422 83.4261L148.568 83.0989C150.216 79.2113 146.968 71.128 144.99 67.3366C144.99 67.3366 144.99 67.3366 144.981 67.327L144.961 67.3077C144.825 67.1538 144.738 66.9805 144.922 66.7785C145.116 66.5668 145.33 66.6822 145.456 66.7785C145.485 66.7977 145.514 66.8266 145.523 66.8362L145.582 66.9036C145.582 66.9036 145.582 66.9036 145.591 66.9132C147.908 69.0687 152.329 73.3317 155.965 77.7005C157.118 79.0862 157.196 81.0877 156.149 82.5697L154.966 84.2344C154.52 84.8599 153.803 85.2063 153.056 85.2063H153.066ZM149.363 83.0412L152.445 84.3595C153.134 84.6578 153.948 84.4269 154.375 83.8206L155.557 82.1559C156.42 80.9434 156.352 79.2979 155.412 78.1624C152.426 74.5826 148.907 71.0703 146.483 68.7415C147.996 72.0326 150.768 78.9996 149.372 83.0412H149.363Z" fill="black"/>
<path d="M147.491 85.1678C148.519 87.7083 149.265 90.3546 149.731 93.049L149.963 94.3866C150.109 95.243 149.731 96.0994 148.994 96.571L147.598 97.4659C143.323 100.218 138.863 102.691 134.248 104.856L131.99 105.915C130.991 106.386 129.818 105.79 129.624 104.712C129.149 102.133 128.907 99.506 128.907 96.8789V95.7434L144.864 86.1686L147.501 85.1582L147.491 85.1678Z" fill="black"/>
<path d="M131.272 106.454C130.952 106.454 130.632 106.377 130.341 106.232C129.769 105.944 129.382 105.415 129.265 104.789C128.78 102.191 128.538 99.535 128.538 96.8887V95.5511L128.713 95.4452L144.728 85.8416L147.704 84.7061L147.84 85.0429C148.868 87.6026 149.633 90.2777 150.099 93.001L150.331 94.3386C150.506 95.3394 150.06 96.3402 149.207 96.8887L147.811 97.7836C143.536 100.536 139.028 103.028 134.413 105.193L132.154 106.252C131.873 106.386 131.582 106.444 131.282 106.444L131.272 106.454ZM129.265 95.9649V96.8983C129.265 99.4965 129.508 102.104 129.973 104.664C130.05 105.068 130.302 105.405 130.661 105.588C131.03 105.771 131.456 105.78 131.825 105.607L134.083 104.548C138.659 102.403 143.138 99.9199 147.394 97.187L148.79 96.292C149.401 95.8975 149.721 95.1854 149.595 94.4637L149.362 93.1261C148.926 90.576 148.228 88.0548 147.278 85.6491L145.009 86.5152L129.255 95.9649H129.265Z" fill="black"/>
<path d="M149.381 80.7702C149.469 77.6908 148.199 73.8224 147.045 70.9933C146.037 68.5106 144.398 66.3262 142.314 64.6325C139.716 62.5251 137.428 60.8796 135.722 59.7537C135.111 59.3496 134.51 58.8684 133.919 58.3103C133.919 58.3103 121.238 68.7896 92.3096 81.8576C92.9397 82.4734 93.5989 83.0027 94.2679 83.4453C96.2262 84.7348 98.9503 86.7075 102.033 89.2961C105.174 91.134 108.451 92.7411 111.844 94.069C118.204 96.571 122.033 96.9944 124.224 96.8404C124.224 96.8404 126.522 96.7153 129.197 96.0128C129.285 95.9936 129.672 95.8781 129.682 95.8781C132.406 95.0794 135.363 93.5301 136.536 93.0201C137.04 92.7988 137.515 92.9528 137.893 93.4435C138.756 94.5598 140.026 93.8284 140.889 91.7307C141.267 90.8069 141.742 90.114 142.246 89.758C143.603 88.7957 145.377 87.4388 147.966 84.8022C148.315 84.4461 148.625 84.0323 148.858 83.5801C148.955 83.3972 149.168 82.5793 149.246 82.127C149.313 81.7613 149.391 80.7798 149.391 80.7605L149.381 80.7702Z" fill="white"/>
<path d="M123.429 97.2351C121.2 97.2351 117.496 96.677 111.718 94.406C108.403 93.1069 105.087 91.4903 101.859 89.6042L101.811 89.5657C98.5242 86.8039 95.7903 84.8793 94.0841 83.7438C93.4055 83.2916 92.7268 82.743 92.0773 82.1079L91.6992 81.7423L92.1839 81.5209C120.734 68.6262 133.589 58.1373 133.715 58.0314L133.967 57.8293L134.2 58.0507C134.782 58.5896 135.363 59.0611 135.955 59.446C137.409 60.4083 139.745 62.0442 142.576 64.344C144.709 66.0858 146.386 68.3279 147.404 70.8491C148.529 73.6109 149.857 77.5852 149.77 80.7704C149.77 80.9243 149.692 81.8385 149.624 82.1945C149.556 82.5987 149.324 83.5033 149.198 83.7438C148.955 84.2154 148.635 84.658 148.247 85.0525C145.669 87.6796 143.885 89.0557 142.479 90.0468C142.033 90.3644 141.597 91.0091 141.248 91.8656C140.657 93.309 139.842 94.2039 138.999 94.3194C138.495 94.3868 138 94.1558 137.622 93.665C137.215 93.1358 136.827 93.2994 136.701 93.3571C136.43 93.4726 136.071 93.6458 135.635 93.8479C134.161 94.5504 131.922 95.6089 129.799 96.2247C129.799 96.2247 129.401 96.3402 129.304 96.3595C126.629 97.0619 124.35 97.1967 124.263 97.1967C124.021 97.2159 123.749 97.2255 123.449 97.2255L123.429 97.2351ZM102.247 89.0076C105.436 90.8648 108.703 92.4622 111.98 93.742C118.398 96.2632 122.169 96.6289 124.195 96.4942C124.224 96.4942 126.493 96.3595 129.101 95.6762C129.188 95.657 129.547 95.5511 129.576 95.5415C131.641 94.9353 133.841 93.896 135.305 93.2031C135.751 92.9914 136.12 92.8182 136.391 92.7028C137.05 92.4141 137.7 92.6065 138.185 93.232C138.398 93.5111 138.63 93.6458 138.883 93.6073C139.319 93.5496 139.978 92.9914 140.55 91.5961C140.957 90.5953 141.471 89.864 142.033 89.4598C143.41 88.4783 145.155 87.1311 147.705 84.5425C148.044 84.1961 148.315 83.8208 148.529 83.407C148.596 83.2819 148.8 82.5217 148.887 82.0598C148.945 81.7326 149.023 80.8377 149.023 80.7415C149.11 77.6814 147.811 73.813 146.706 71.1186C145.727 68.7129 144.127 66.5669 142.091 64.9022C139.28 62.6215 136.973 60.9953 135.528 60.0426C134.985 59.6866 134.442 59.2631 133.919 58.782C131.941 60.3602 119.174 70.0697 92.9692 81.954C93.4733 82.4062 93.9774 82.8008 94.4815 83.1376C96.2072 84.2827 98.9507 86.2169 102.247 88.9883V89.0076Z" fill="black"/>
<path d="M16.4405 21.3875L20.2505 19.001C28.1418 14.0645 36.2562 9.46471 44.5547 5.24025L47.3855 3.79682C48.1514 3.4119 49.0336 3.31567 49.8479 3.56586C55.8294 5.35572 62.2666 7.98277 67.8991 10.504C68.6068 10.8215 68.6553 11.7935 67.9864 12.1784L38.6895 29.0281C37.7006 29.5958 36.5082 29.6728 35.4515 29.2398C29.945 26.9591 23.4303 24.6689 16.741 23.1774C15.8782 22.9849 15.6843 21.859 16.4308 21.3875H16.4405Z" fill="#CBCACC"/>
<path d="M36.867 29.8747C36.3435 29.8747 35.82 29.7785 35.3255 29.5668C28.7429 26.8435 22.4706 24.8131 16.6732 23.5236C16.1304 23.3985 15.7232 22.9847 15.6359 22.4362C15.539 21.8877 15.7716 21.3681 16.2467 21.0698L20.0663 18.6833C27.9383 13.7564 36.1205 9.11813 44.3996 4.9033L47.2304 3.45986C48.0933 3.01721 49.0627 2.9306 49.974 3.20005C55.1606 4.75896 61.2487 7.09732 68.0737 10.1574C68.5294 10.3595 68.8202 10.7925 68.8493 11.2833C68.8783 11.7741 68.6263 12.236 68.1997 12.4765L38.9028 29.3262C38.2824 29.6823 37.5844 29.8651 36.8767 29.8651L36.867 29.8747ZM16.6345 21.6953C16.4115 21.83 16.3049 22.0706 16.3533 22.3208C16.4018 22.5806 16.5763 22.7634 16.838 22.8212C22.6742 24.1202 28.995 26.1699 35.6164 28.9028C36.5567 29.2877 37.6425 29.2204 38.5344 28.7104L67.8313 11.8607C68.0252 11.7452 68.1319 11.5527 68.1222 11.3314C68.1125 11.1101 67.9865 10.9272 67.7829 10.831C60.987 7.78055 54.9279 5.4518 49.7704 3.90251C49.0433 3.68119 48.2678 3.75817 47.5794 4.11422L44.7486 5.55766C36.4889 9.76287 28.3261 14.3915 20.4735 19.2992L16.6539 21.6856L16.6345 21.6953Z" fill="black"/>
<path d="M16.4406 21.3875L20.2505 19.001C28.1419 14.0645 36.2562 9.46471 44.5548 5.24025L47.3856 3.79682C48.1514 3.4119 49.0336 3.31567 49.848 3.56586C55.8295 5.35572 62.2667 7.98277 67.8992 10.504C68.6069 10.8215 68.6554 11.7935 67.9865 12.1784L67.5211 12.4478C62.6739 10.3596 57.6133 8.13674 52.6885 6.65481C51.8644 6.40462 50.9822 6.50085 50.2261 6.88577L46.6391 8.80072C38.3406 13.0348 30.6334 17.4132 22.742 22.3498L20.1245 23.9857C19.0096 23.6874 17.8851 23.4083 16.7508 23.1581C15.888 22.9656 15.6941 21.8398 16.4406 21.3682V21.3875Z" fill="black"/>
<path d="M20.1924 24.3994L20.0373 24.361C18.7382 24.0242 17.6718 23.7547 16.6732 23.5334C16.1304 23.4083 15.7232 22.9945 15.6359 22.446C15.539 21.8975 15.7716 21.3779 16.2467 21.0795L20.0663 18.6931C27.9383 13.7661 36.1205 9.1279 44.3996 4.91306L47.2304 3.46963C48.0933 3.02697 49.0627 2.94037 49.974 3.20981C55.1606 4.76872 61.2487 7.10708 68.0737 10.1672C68.5294 10.3693 68.8202 10.8023 68.8493 11.293C68.8783 11.7838 68.6263 12.2457 68.1997 12.4863L67.5793 12.8423L66.5517 12.3997C61.9758 10.427 57.2352 8.38693 52.6206 7.00123C51.8935 6.77991 51.1179 6.85689 50.4296 7.21294L46.8524 9.12789C38.6314 13.3139 31.0502 17.6153 22.9747 22.6673L20.2214 24.3898L20.1924 24.3994ZM16.6345 21.6954C16.4115 21.8301 16.3049 22.0707 16.3533 22.3209C16.4018 22.5807 16.5763 22.7636 16.838 22.8213C17.8075 23.033 18.8351 23.2928 20.076 23.6104L22.5578 22.0515C30.6431 16.9898 38.2436 12.6787 46.484 8.48316L50.0612 6.5682C50.9241 6.12555 51.9032 6.03894 52.8048 6.30838C57.4679 7.7037 62.2182 9.75339 66.8134 11.7357L67.5114 12.034L67.8216 11.8608C68.0155 11.7453 68.1222 11.5529 68.1125 11.3315C68.1028 11.1102 67.9767 10.9274 67.7732 10.8312C60.9773 7.78069 54.9182 5.45194 49.7607 3.90266C49.0336 3.68133 48.2581 3.75831 47.5697 4.11436L44.7389 5.5578C36.4792 9.76301 28.3164 14.3916 20.4638 19.2993L16.6442 21.6858L16.6345 21.6954Z" fill="black"/>
<path d="M101.569 31.0777C102.247 30.6928 103.091 30.7505 103.711 31.222C111.922 37.4769 121.21 45.8296 128.684 55.9818C129.082 56.5206 128.878 57.3001 128.316 57.6754C124.787 60.0907 112.019 68.5493 94.6758 76.9116C93.7257 77.3735 92.5721 77.0655 91.9613 76.2091C89.2275 72.3503 81.055 61.4572 70.1098 51.2184C69.3052 50.4678 69.47 49.1591 70.4297 48.6202L101.549 31.0777H101.569Z" fill="#CBCACC"/>
<path d="M93.7448 77.489C92.9499 77.489 92.1646 77.1041 91.6799 76.4112C89.4501 73.2549 81.2777 62.1404 69.8769 51.4783C69.4115 51.0452 69.1886 50.4294 69.2661 49.7942C69.3437 49.1591 69.7121 48.6106 70.2647 48.2931L101.384 30.7505C102.198 30.2982 103.197 30.356 103.934 30.9237C114.152 38.7087 122.576 47.0613 128.985 55.7604C129.217 56.078 129.304 56.4725 129.237 56.8767C129.159 57.3194 128.907 57.7139 128.529 57.9737C125.01 60.3794 112.194 68.8669 94.8403 77.2388C94.4816 77.412 94.1132 77.489 93.7351 77.489H93.7448ZM101.753 31.3856L70.633 48.9282C70.2744 49.1303 70.0417 49.4767 69.9932 49.8808C69.9447 50.285 70.0901 50.6699 70.381 50.949C81.8302 61.6593 90.0318 72.8219 92.2713 75.9878C92.7851 76.7095 93.7351 76.9597 94.5204 76.5748C111.835 68.2221 124.612 59.7636 128.112 57.3675C128.325 57.2231 128.471 56.9922 128.509 56.7516C128.539 56.6073 128.529 56.3859 128.383 56.1839C122.024 47.5425 113.638 39.2379 103.478 31.5011C102.974 31.1162 102.295 31.0777 101.733 31.3856H101.753Z" fill="black"/>
<path d="M90.3711 74.0055C91.0206 74.8812 91.5538 75.6221 91.9707 76.2091C92.5814 77.0752 93.7254 77.3735 94.6852 76.9116C112.029 68.5493 124.796 60.0907 128.325 57.6754C128.878 57.2905 129.091 56.5206 128.694 55.9818C121.219 45.8296 111.932 37.4769 103.72 31.222C103.1 30.7505 102.257 30.6928 101.578 31.0777L100.705 31.5684C108.083 37.0535 116.789 44.7615 123.303 53.6049C123.701 54.1438 123.497 54.9232 122.935 55.2985C121.054 56.588 116.537 59.5903 110.109 63.3818C110.061 63.401 108.025 64.4692 105.369 64.9984C104.894 65.0947 104.438 64.7963 104.292 64.3344C104.002 63.4106 103.459 62.6985 102.703 62.2559C101.51 61.5727 99.9881 61.6881 98.4176 62.5927C95.4704 64.2767 93.1631 68.2413 93.1631 71.619C93.1631 71.696 93.1631 71.7729 93.1728 71.8499C92.4263 72.7737 91.486 73.5243 90.3711 73.9862C90.3711 73.9862 90.3711 73.9862 90.3711 73.9958V74.0055ZM101.83 63.7763C102.528 64.1901 102.257 65.2871 101.442 65.393C99.6682 65.6143 97.9037 66.2301 96.4108 67.4715C96.3138 67.5581 96.1684 67.433 96.2363 67.3176C97.0312 65.9607 98.117 64.7771 99.2901 64.1035C99.9008 63.7474 100.492 63.5742 100.996 63.5742C101.297 63.5742 101.578 63.6416 101.811 63.7763C101.811 63.7763 101.811 63.7763 101.82 63.7763H101.83Z" fill="black"/>
<path d="M93.7448 77.489C92.9499 77.489 92.1646 77.1041 91.6799 76.4112C91.2727 75.8339 90.7298 75.0929 90.0803 74.2172L89.9736 74.0825L90.0706 73.7361L90.2354 73.6591C91.2242 73.2453 92.087 72.6006 92.8044 71.7345C92.8044 71.696 92.8044 71.6672 92.8044 71.6287C92.8044 68.1355 95.1893 64.0362 98.2334 62.2848C99.9202 61.3225 101.568 61.1974 102.877 61.948C103.701 62.4195 104.312 63.2086 104.632 64.2286C104.729 64.527 105.01 64.7098 105.291 64.6521C107.899 64.1324 109.915 63.0739 109.935 63.0643C116.469 59.2055 121.054 56.1358 122.722 55.0003C122.935 54.8559 123.08 54.625 123.119 54.3844C123.148 54.2401 123.139 54.0187 122.993 53.8167C115.606 43.78 105.708 35.7545 100.473 31.8572L100.027 31.53L101.384 30.7698C102.198 30.3175 103.197 30.3753 103.934 30.943C114.152 38.7279 122.576 47.0806 128.984 55.7797C129.217 56.0973 129.304 56.4918 129.237 56.896C129.159 57.3386 128.907 57.7332 128.529 57.993C125.01 60.3987 112.194 68.8861 94.8403 77.2581C94.4816 77.4313 94.1132 77.5083 93.7351 77.5083L93.7448 77.489ZM90.9237 74.1402C91.4569 74.8716 91.9125 75.4971 92.2712 75.9975C92.785 76.7192 93.7351 76.9694 94.5301 76.5845C111.845 68.2318 124.622 59.7732 128.122 57.3771C128.335 57.2328 128.48 57.0018 128.519 56.7613C128.548 56.6169 128.539 56.3956 128.393 56.1935C122.033 47.5521 113.648 39.2476 103.488 31.5108C102.984 31.1258 102.305 31.0874 101.743 31.3953L101.355 31.6166C107.763 36.4281 116.672 44.0109 123.585 53.3933C123.817 53.7108 123.905 54.1053 123.837 54.5095C123.759 54.9522 123.507 55.3467 123.129 55.6065C121.462 56.7517 116.857 59.831 110.284 63.709C110.245 63.7283 108.132 64.8349 105.427 65.3738C104.777 65.4989 104.128 65.114 103.924 64.4596C103.653 63.6032 103.178 62.9777 102.499 62.5928C101.423 61.9769 100.037 62.0924 98.5824 62.9295C95.7419 64.5558 93.5121 68.3857 93.5121 71.6479C93.5121 71.6864 93.5121 71.7249 93.5121 71.7634V71.9943L93.4346 72.1002C92.7172 72.9951 91.8641 73.6783 90.8946 74.1595L90.9237 74.1402ZM96.3429 67.8661C96.2363 67.8661 96.12 67.8276 96.0327 67.7506C95.8485 67.5967 95.8097 67.3465 95.9261 67.1444C96.7889 65.6625 97.9232 64.4788 99.1156 63.7956C100.211 63.1701 101.277 63.045 102.005 63.4588H102.024C102.47 63.7282 102.683 64.2287 102.577 64.7483C102.46 65.2872 102.043 65.6817 101.5 65.7491C99.5906 65.9896 97.9619 66.6632 96.6629 67.7506C96.5756 67.8276 96.4593 67.8661 96.3526 67.8661H96.3429ZM101.006 63.94C100.56 63.94 100.027 64.1035 99.4743 64.4211C98.6987 64.8638 97.9522 65.547 97.293 66.4034C98.4854 65.6817 99.8524 65.2294 101.394 65.037C101.665 64.9985 101.811 64.7868 101.849 64.6039C101.869 64.527 101.898 64.2479 101.636 64.0939C101.452 63.9881 101.248 63.94 101.006 63.94Z" fill="black"/>
<path d="M91.2148 74.2267C92.6883 73.505 94.6176 71.8788 95.3543 70.4161C95.7033 69.7329 96.4401 67.7698 96.8764 67.2405C97.0509 67.0384 97.1381 67.1443 97.2254 67.3271C97.4677 67.8756 97.5356 68.4819 97.4581 69.0785C97.3417 70.0215 97.4387 71.3014 98.5632 72.1097C98.9607 72.3984 98.9219 72.995 98.5051 73.2452C96.857 74.2075 93.619 75.699 91.2051 74.2267H91.2148Z" fill="#CBCACC"/>
<path d="M123.293 53.5856C116.779 44.7422 108.073 37.0342 100.695 31.5492L101.568 31.0584C102.246 30.6735 103.09 30.7312 103.71 31.2027C111.922 37.4576 121.209 45.8103 128.683 55.9625C128.829 56.1646 128.897 56.4051 128.887 56.6361L123.439 54.5479C123.526 54.2207 123.497 53.8743 123.284 53.5856H123.293Z" fill="#CBCACC"/>
<path d="M129.246 57.1556L123.012 54.7595L123.099 54.442C123.138 54.3072 123.177 54.0282 123.002 53.7876C115.615 43.7509 105.717 35.7254 100.482 31.8281L100.036 31.501L101.393 30.7407C102.208 30.2885 103.206 30.3462 103.943 30.914C114.161 38.6989 122.586 47.0516 128.994 55.7507C129.188 56.0105 129.285 56.3184 129.275 56.6456L129.255 57.1556H129.246ZM123.865 54.3072L128.276 56.0009C121.926 47.4172 113.589 39.1704 103.497 31.4817C102.993 31.0968 102.314 31.0583 101.752 31.3662L101.364 31.5876C107.772 36.399 116.682 43.9819 123.594 53.3642C123.797 53.6336 123.885 53.9704 123.865 54.3072Z" fill="black"/>
<path d="M49.8569 3.56586C55.8385 5.35572 62.2757 7.98277 67.9082 10.504C68.6159 10.8215 68.6644 11.7935 67.9954 12.1784L67.5301 12.4478C62.6828 10.3596 57.6223 8.13674 52.6974 6.65481C52.3291 6.54896 51.951 6.51047 51.5729 6.52972C49.9151 5.25949 47.3945 3.79682 47.3945 3.79682C48.1604 3.4119 49.0426 3.31567 49.8569 3.56586Z" fill="#CBCACC"/>
<path d="M67.5595 12.8519L66.5319 12.4092C61.956 10.4365 57.2154 8.39646 52.6008 7.01076C52.3003 6.92415 51.961 6.88566 51.6023 6.90491H51.4569L51.3405 6.8183C49.7312 5.58657 47.2397 4.13351 47.2106 4.11426L46.6387 3.77746L47.23 3.47915C48.0929 3.0365 49.0623 2.94989 49.9736 3.21933C55.1602 4.77824 61.2483 7.11661 68.0733 10.1767C68.5289 10.3788 68.8198 10.8118 68.8489 11.3026C68.8779 11.7933 68.6259 12.2552 68.1993 12.4958L67.5789 12.8519H67.5595ZM51.7865 6.17356C52.1452 6.17356 52.4845 6.22168 52.8044 6.31791C57.4675 7.71323 62.2178 9.76291 66.813 11.7452L67.511 12.0435L67.8212 11.8703C68.0151 11.7549 68.1218 11.5624 68.1121 11.3411C68.1024 11.1197 67.9763 10.9369 67.7728 10.8407C60.9769 7.79022 54.9178 5.46147 49.7603 3.91218C49.2659 3.75822 48.7424 3.74859 48.2383 3.87369C49.0817 4.3837 50.565 5.3075 51.7089 6.17356C51.738 6.17356 51.7671 6.17356 51.7962 6.17356H51.7865Z" fill="black"/>
<path d="M140.092 94.1531L139.375 94.2729L140.499 100.896L141.216 100.777L140.092 94.1531Z" fill="#CBCACC"/>
<path d="M137.942 91.0764C137.942 91.7885 138.447 92.0772 139.067 91.7212C139.687 91.3651 140.192 90.4991 140.192 89.787C140.192 89.0749 139.687 88.7862 139.067 89.1422C138.447 89.4983 137.942 90.3643 137.942 91.0668V91.0764Z" fill="black"/>
<path d="M138.563 92.2311C138.388 92.2311 138.233 92.1926 138.088 92.106C137.758 91.9232 137.574 91.5383 137.574 91.0668C137.574 90.2296 138.146 89.248 138.882 88.8246C139.29 88.5937 139.716 88.5648 140.046 88.7476C140.375 88.9305 140.56 89.3154 140.56 89.7869C140.56 90.6241 139.988 91.6153 139.251 92.029C139.018 92.1638 138.786 92.2311 138.563 92.2311ZM139.571 89.3635C139.484 89.3635 139.367 89.402 139.251 89.4693C138.737 89.758 138.311 90.499 138.311 91.086C138.311 91.2881 138.369 91.4421 138.456 91.4902C138.543 91.5383 138.708 91.5094 138.882 91.4132C139.396 91.1245 139.823 90.3835 139.823 89.7965C139.823 89.5945 139.765 89.4405 139.677 89.3924C139.648 89.3731 139.61 89.3635 139.571 89.3635Z" fill="black"/>
<path d="M62.3854 12.1453L37.4727 26.2617L37.8331 26.8885L62.7458 12.7721L62.3854 12.1453Z" fill="black"/>
<path d="M87.7051 44.7517L92.6105 41.9418C93.58 41.3837 93.832 40.5465 93.2601 39.8344C92.8626 39.3436 91.7477 39.2378 91.0788 39.6131L83.6431 43.876C82.9838 44.2513 83.1777 44.896 84.0308 45.127C85.2717 45.4542 86.7356 45.3098 87.7051 44.7517Z" fill="white"/>
<path d="M85.4075 45.6658C84.9131 45.6658 84.409 45.608 83.9339 45.4733C83.3426 45.3097 82.9451 44.9633 82.8869 44.5302C82.8384 44.155 83.042 43.7989 83.4589 43.568L90.8946 39.305C91.7186 38.8335 93.0274 38.9875 93.5412 39.6129C93.8611 40.0075 93.9872 40.4501 93.8999 40.8928C93.803 41.4221 93.4055 41.9032 92.7947 42.2592L87.8893 45.0691C87.2107 45.4637 86.3188 45.6658 85.4172 45.6658H85.4075ZM92.0289 39.7477C91.7574 39.7477 91.486 39.8054 91.263 39.9305L83.8273 44.1934C83.6916 44.2704 83.6043 44.3667 83.614 44.434C83.6237 44.5206 83.7691 44.6842 84.1278 44.7708C85.2718 45.0788 86.6387 44.944 87.5209 44.434L92.4263 41.6241C92.8529 41.3739 93.1243 41.066 93.1825 40.7484C93.231 40.5175 93.1534 40.2866 92.9692 40.0556C92.8141 39.8631 92.4263 39.738 92.0192 39.738L92.0289 39.7477Z" fill="black"/>
<path d="M118.669 100.978C118.747 101.055 118.882 100.978 118.834 100.863C118.427 99.8524 117.748 97.7354 119.367 97.9086C120.482 98.0337 121.936 99.1692 123.041 100.218C123.361 100.516 123.478 100.978 123.342 101.392C123.012 102.402 122.208 103.182 121.19 103.471L120.453 103.682C118.892 104.135 117.244 104.01 115.78 103.394C113.618 100.574 111.35 98.0048 109.091 95.6953C113.298 96.0032 117.399 99.7369 118.659 100.978H118.669Z" fill="white"/>
<path d="M118.533 104.317C117.544 104.317 116.556 104.115 115.635 103.73L115.547 103.692L115.489 103.615C113.492 101.007 111.253 98.4281 108.829 95.9454L108.16 95.2622L109.12 95.3296C112.794 95.599 116.391 98.4089 118.146 99.9871C117.884 99.0536 117.913 98.3704 118.233 97.9566C118.407 97.7353 118.747 97.4755 119.406 97.5525C120.404 97.6583 121.713 98.4666 123.293 99.9582C123.71 100.353 123.865 100.959 123.691 101.507C123.332 102.633 122.431 103.499 121.287 103.827L120.55 104.038C119.891 104.231 119.212 104.317 118.533 104.317ZM116.013 103.095C117.389 103.663 118.931 103.75 120.356 103.336L121.093 103.124C122.004 102.864 122.712 102.171 123.002 101.286C123.099 100.997 123.012 100.69 122.799 100.487C121.354 99.1306 120.152 98.3608 119.328 98.2742C118.95 98.2357 118.853 98.3608 118.824 98.3993C118.64 98.6398 118.63 99.3808 119.183 100.738C119.27 100.949 119.193 101.18 119.008 101.305C118.824 101.43 118.582 101.402 118.417 101.248C117.36 100.199 113.841 96.9655 110.089 96.2052C112.232 98.4474 114.219 100.767 116.013 103.105V103.095Z" fill="black"/>
<path d="M154.695 80.9531C154.695 80.9531 149.653 73.6685 149.392 71.1377C151.321 73.0815 153.638 75.5065 155.703 77.9796C156.759 79.2498 156.818 81.0589 155.868 82.4061L154.685 84.0709C154.685 84.0709 154.685 84.0709 154.685 84.0805C154.249 84.6867 153.318 84.6675 152.843 84.0805C152.038 83.099 150.797 81.2995 150.875 79.5192C150.991 76.9018 154.704 80.9338 154.704 80.9338L154.695 80.9531Z" fill="white"/>
<path d="M153.763 84.8986C153.288 84.8986 152.842 84.687 152.542 84.3213C151.737 83.3494 150.409 81.4344 150.496 79.5194C150.525 78.8843 150.748 78.4898 151.155 78.3455C151.621 78.1722 152.251 78.4321 152.862 78.8458C151.34 76.4594 149.207 72.8604 149.023 71.1764L148.916 70.1467L149.643 70.8781C152.096 73.3415 154.219 75.651 155.974 77.7488C157.127 79.1345 157.205 81.1361 156.158 82.618L154.975 84.2828C154.704 84.6677 154.277 84.8794 153.812 84.8986C153.792 84.8986 153.783 84.8986 153.763 84.8986ZM151.504 79.0094C151.504 79.0094 151.437 79.0094 151.398 79.0287C151.301 79.0672 151.233 79.2596 151.223 79.5579C151.146 81.2323 152.367 82.9741 153.104 83.869C153.269 84.0711 153.521 84.1866 153.792 84.1769C154.035 84.1769 154.238 84.0615 154.374 83.8786L155.566 82.2042C156.429 80.9918 156.371 79.3559 155.421 78.2204C153.928 76.4305 152.154 74.477 150.128 72.4081C151.33 75.4297 154.956 80.6934 154.994 80.7608L154.423 81.2131C153.405 80.1064 152.047 79.0287 151.504 79.0287V79.0094Z" fill="black"/>
<path d="M151.234 80.7991C151.999 82.0693 153.366 82.6467 154.278 82.0982C155.189 81.5497 155.305 80.087 154.539 78.8168C153.774 77.5466 152.407 76.9692 151.495 77.5177C150.584 78.0662 150.468 79.5289 151.234 80.7991Z" fill="#CBCACC"/>
<path d="M153.521 82.6661C152.59 82.6661 151.563 82.0406 150.923 80.9917C150.05 79.5579 150.225 77.8642 151.311 77.2099C152.396 76.5651 153.986 77.2099 154.859 78.6341C155.731 80.0679 155.557 81.7615 154.471 82.4159C154.18 82.5891 153.86 82.6661 153.521 82.6661ZM151.553 80.6164C152.202 81.6941 153.375 82.233 154.103 81.7904C154.83 81.3573 154.888 80.0775 154.238 79.0094C153.589 77.9316 152.416 77.3927 151.689 77.8257C150.962 78.2588 150.903 79.5386 151.553 80.6068V80.6164Z" fill="black"/>
<path d="M117.419 101.536C118.747 102.556 120.424 102.605 121.151 101.662C121.888 100.718 121.403 99.1307 120.065 98.1107C118.737 97.0907 117.06 97.0425 116.333 97.9856C115.596 98.9286 116.081 100.516 117.419 101.536Z" fill="#CBCACC"/>
<path d="M119.61 102.691C118.834 102.691 117.962 102.403 117.206 101.825C116.498 101.286 115.994 100.584 115.761 99.8429C115.519 99.0539 115.626 98.3225 116.052 97.7644C116.905 96.6578 118.815 96.6866 120.298 97.8221C121.782 98.9576 122.305 100.776 121.452 101.883C121.035 102.422 120.366 102.691 119.61 102.691ZM117.642 101.248C118.815 102.143 120.26 102.229 120.87 101.44C121.481 100.651 121.025 99.2848 119.852 98.3995C118.679 97.5046 117.235 97.418 116.624 98.207C116.343 98.5727 116.285 99.0731 116.45 99.6312C116.634 100.228 117.051 100.805 117.642 101.248Z" fill="black"/>
<path d="M158.795 89.4405C158.717 89.6907 158.746 90.0275 158.882 90.3643C159.163 91.0475 158.901 91.827 158.271 92.2119L155.867 93.6938C155.867 93.6938 155.857 93.6938 155.848 93.7034C155.033 94.1942 154.171 93.0876 154.81 92.3851L159.202 87.5352C159.105 88.1895 158.979 88.8439 158.785 89.4309L158.795 89.4405Z" fill="black"/>
<path d="M155.431 94.1944C155.092 94.1944 154.772 94.0404 154.529 93.7517C154.122 93.2706 154.132 92.6066 154.549 92.1447L159.745 86.4094L159.571 87.593C159.464 88.3532 159.318 88.998 159.144 89.5465C159.105 89.6812 159.096 89.9314 159.222 90.2297C159.571 91.0765 159.251 92.0388 158.465 92.5296L156.061 94.0115C155.848 94.1366 155.635 94.1944 155.421 94.1944H155.431ZM158.62 88.7478L155.092 92.6354C154.878 92.8664 154.956 93.1358 155.092 93.2898C155.15 93.3572 155.363 93.5785 155.664 93.3956L158.087 91.9041C158.562 91.6058 158.756 91.0188 158.553 90.4992C158.388 90.0854 158.349 89.662 158.456 89.3252C158.514 89.1423 158.572 88.9499 158.62 88.7382V88.7478Z" fill="black"/>
<path d="M118.941 114.566C118.621 114.71 118.281 114.816 117.942 114.845C117.806 114.758 117.71 114.691 117.574 114.595C117.516 114.373 117.448 114.181 117.38 114.037C117.225 113.7 117.196 113.353 117.283 113.113C117.583 112.256 117.758 111.285 117.855 110.341L118.398 110.255L124.079 109.524C124.845 109.427 125.3 110.322 124.787 110.9C123.778 112.006 122.557 112.911 121.17 113.546L118.931 114.576L118.941 114.566Z" fill="black"/>
<path d="M117.836 115.211L117.244 114.816L117.215 114.681C117.167 114.499 117.109 114.325 117.051 114.181C116.866 113.767 116.828 113.334 116.944 112.988C117.196 112.256 117.39 111.352 117.496 110.293L117.526 110.024L118.35 109.889L124.05 109.158C124.544 109.09 125.019 109.341 125.252 109.774C125.485 110.216 125.417 110.755 125.078 111.131C124.021 112.285 122.77 113.209 121.345 113.863L119.106 114.893C118.718 115.066 118.34 115.172 117.972 115.201H117.845L117.836 115.211ZM117.894 114.373L118.039 114.47C118.282 114.441 118.534 114.364 118.796 114.239L121.035 113.209C122.373 112.593 123.546 111.737 124.535 110.649C124.7 110.467 124.68 110.255 124.603 110.111C124.564 110.043 124.438 109.841 124.147 109.88L118.204 110.649C118.088 111.65 117.894 112.516 117.642 113.228C117.584 113.392 117.623 113.652 117.729 113.883C117.797 114.027 117.855 114.191 117.904 114.373H117.894Z" fill="black"/>
<path d="M115.567 97.7258C115.567 97.7258 114.453 96.061 112.649 95.0506L113.008 94.4155C114.966 95.5125 116.13 97.2447 116.178 97.3216L115.567 97.7162V97.7258Z" fill="#CBCACC"/>
<path d="M150.448 77.3541C150.4 77.2964 149.324 75.9492 148.858 73.9187L149.566 73.7551C149.993 75.622 151.001 76.8826 151.011 76.8922L150.439 77.3445L150.448 77.3541Z" fill="#CBCACC"/>
<path d="M9.89622 20.3287L9.45996 19.7513C20.1918 11.8605 36.469 4.066 36.6338 3.98901L36.9537 4.64337C36.7889 4.72035 20.5699 12.486 9.89622 20.3383V20.3287Z" fill="black"/>
<path d="M117.991 107.792C117.409 107.888 116.808 107.878 116.236 107.724L114.763 107.272C114.191 107.099 113.648 107.599 113.793 108.176L114.598 111.506C114.598 111.66 114.588 111.814 114.598 111.977V112.093C114.637 112.372 114.695 112.641 114.792 112.911C115.219 114.056 116.275 114.691 117.603 114.71C117.603 114.71 117.012 113.835 117.4 112.834C117.797 111.833 117.991 107.801 117.991 107.801V107.792Z" fill="white"/>
<path d="M118.291 115.086H117.593C116.091 115.047 114.918 114.277 114.452 113.036C114.355 112.766 114.288 112.468 114.249 112.131V112.016C114.229 111.852 114.22 111.698 114.229 111.544L113.434 108.273C113.338 107.878 113.464 107.474 113.764 107.195C114.065 106.916 114.481 106.819 114.869 106.945L116.343 107.397C116.828 107.532 117.37 107.551 117.923 107.455L118.369 107.378L118.35 107.83C118.33 108.253 118.136 111.948 117.729 112.978C117.409 113.796 117.884 114.518 117.894 114.527L118.282 115.105L118.291 115.086ZM114.53 107.599C114.394 107.599 114.297 107.676 114.259 107.705C114.21 107.753 114.094 107.888 114.142 108.09L114.957 111.467V111.525C114.947 111.66 114.947 111.804 114.957 111.939V112.045C114.995 112.333 115.053 112.564 115.131 112.776C115.432 113.584 116.1 114.114 117.012 114.287C116.886 113.883 116.818 113.305 117.06 112.699C117.332 112.006 117.526 109.523 117.603 108.205C117.099 108.244 116.605 108.205 116.139 108.07L114.656 107.618C114.656 107.618 114.569 107.599 114.53 107.599Z" fill="black"/>
<path d="M15.2672 63.555C15.2575 63.4876 13.9778 56.7516 18.6894 54.009L18.9705 54.4902C14.5983 57.0306 15.8101 63.3914 15.8198 63.4491L15.2672 63.555Z" fill="#CBCACC"/>
<path d="M89.3433 106.156C89.3239 106.088 87.6952 99.3329 92.4843 96.0034L92.8042 96.4557C88.335 99.5639 89.8668 105.954 89.8862 106.021L89.3433 106.156Z" fill="#CBCACC"/>
</g>
<defs>
<clipPath id="clip0_337_118">
<rect width="164" height="130" fill="white"/>
</clipPath>
</defs>
</svg>
